<svg xmlns="http://www.w3.org/2000/svg" xmlns:xlink="http://www.w3.org/1999/xlink" width="83" height="83" viewBox="0 0 83 83">
  <defs>
    <filter id="Fondo" x="0" y="0" width="83" height="83" filterUnits="userSpaceOnUse">
      <feOffset dy="3" input="SourceAlpha"/>
      <feGaussianBlur stdDeviation="3" result="blur"/>
      <feFlood flood-opacity="0.161"/>
      <feComposite operator="in" in2="blur"/>
      <feComposite in="SourceGraphic"/>
    </filter>
  </defs>
  <g id="Group_1143793" data-name="Group 1143793" transform="translate(-298 -1284)">
    <g transform="matrix(1, 0, 0, 1, 298, 1284)" filter="url(#Fondo)">
      <g id="Fondo-2" data-name="Fondo" transform="translate(9 6)" fill="#e8f5f8" stroke="#145a74" stroke-width="3">
        <circle cx="32.5" cy="32.5" r="32.5" stroke="none"/>
        <circle cx="32.5" cy="32.5" r="31" fill="none"/>
      </g>
    </g>
    <g id="Group_1143792" data-name="Group 1143792" transform="translate(287.645 1299.198)">
      <g id="Group_1143791" data-name="Group 1143791" transform="translate(33.434 2.303)">
        <g id="Group_1143784" data-name="Group 1143784" transform="translate(0.71 1.217)">
          <g id="Group_1143783" data-name="Group 1143783">
            <g id="Group_1143782" data-name="Group 1143782">
              <g id="Group_1143781" data-name="Group 1143781">
                <g id="Group_1143780" data-name="Group 1143780">
                  <g id="Group_1143779" data-name="Group 1143779">
                    <g id="Group_1143778" data-name="Group 1143778">
                      <g id="Group_1143775" data-name="Group 1143775" transform="translate(20.957 25.055)">
                        <path id="Path_980059" data-name="Path 980059" d="M291.653,320.172q1.959.941,3.919,1.88l4.689-5.24a1.739,1.739,0,0,0-2.491-2.424Z" transform="translate(-291.653 -313.913)" fill="#f89f8e"/>
                      </g>
                      <g id="Group_1143776" data-name="Group 1143776" transform="translate(23.806 26.774)">
                        <path id="Path_980060" data-name="Path 980060" d="M322.951,338.7q1.913,1.032,3.827,2.061l4.928-5.015a1.739,1.739,0,0,0-2.375-2.538Z" transform="translate(-322.951 -332.79)" fill="#fdb0a0"/>
                      </g>
                      <g id="Group_1143777" data-name="Group 1143777">
                        <circle id="Ellipse_11553" data-name="Ellipse 11553" cx="15.361" cy="15.361" r="15.361" transform="translate(0.971 0)" fill="#64b9fc"/>
                        <path id="Path_980061" data-name="Path 980061" d="M240.96,54.056A15.362,15.362,0,0,1,225.6,69.417c-.515,0-1.026-.025-1.528-.075a15.363,15.363,0,0,0,0-30.573c.5-.05,1.013-.075,1.528-.075A15.362,15.362,0,0,1,240.96,54.056Z" transform="translate(-209.266 -38.694)" fill="#31a7fb"/>
                        <path id="Path_980062" data-name="Path 980062" d="M164.94,54.983a15.288,15.288,0,0,1-2.746,8.767l-4.493-1.5a.91.91,0,0,0-1.053.371l-.965,1.5a.91.91,0,0,1-.381.332l-2.611,1.217a.91.91,0,0,1-.908-.08l-3.217-2.262a.91.91,0,0,1-.311-1.109l.48-1.1a.91.91,0,0,1,.612-.518l3.5-.879a.911.911,0,0,0,.589-.468l1.184-2.311a.91.91,0,0,0-.034-.89l-1.274-2.083a.91.91,0,0,0-.777-.436h-1.01a.91.91,0,0,0-.766.418l-1.765,2.749a.91.91,0,0,1-1.03.379l-1.427-.433a.91.91,0,0,0-.914.233l-.8.818a.91.91,0,0,1-1.152.121l-1.78-1.178a.911.911,0,0,1-.34-.415l-1.044-2.556a.911.911,0,0,1,.061-.811l1.6-2.683a.91.91,0,0,1,1.067-.4l2.706.892a.91.91,0,0,0,.7-.055l4.254-2.191a.91.91,0,0,0,.491-.871l-.129-1.893a.911.911,0,0,0-.428-.711l-.925-.575a.91.91,0,0,1-.338-1.172l1.7-3.5A15.363,15.363,0,0,1,164.94,54.983Z" transform="translate(-133.247 -39.622)" fill="#99d53b"/>
                        <path id="Path_980063" data-name="Path 980063" d="M270.332,54.982a15.288,15.288,0,0,1-2.746,8.767l-2.514-.838a15.369,15.369,0,0,0-8.688-22.629l.277-.569A15.363,15.363,0,0,1,270.332,54.982Z" transform="translate(-238.639 -39.62)" fill="#8dc637"/>
                        <path id="Path_980064" data-name="Path 980064" d="M359.86,151.688a15.342,15.342,0,0,1-.886,5.153,5.094,5.094,0,0,1-4.031-5.732,6,6,0,0,1,3.716-4.97.457.457,0,0,1,.154-.034A15.311,15.311,0,0,1,359.86,151.688Z" transform="translate(-328.166 -136.327)" fill="#8dc637"/>
                        <path id="Path_980065" data-name="Path 980065" d="M95.02,273.055a1.973,1.973,0,0,0-1.985.5c-.46.434-.918,1.04-1.52,1.526a15.4,15.4,0,0,1-4.393-5.649,4.784,4.784,0,0,1,3.468-.7,6,6,0,0,1,4.97,3.717A.454.454,0,0,1,95.02,273.055Z" transform="translate(-84.786 -247.729)" fill="#31a7fb"/>
                        <path id="Path_980066" data-name="Path 980066" d="M104.073,57.346a6.009,6.009,0,0,1-5.791-1.332,15.412,15.412,0,0,1,7.468-6.123q.349.042.717.1a1.622,1.622,0,0,1,.37.1,1.588,1.588,0,0,1,.981,1.216C108.076,52.86,107.829,56.4,104.073,57.346Z" transform="translate(-94.929 -48.872)" fill="#31a7fb"/>
                        <path id="Path_980067" data-name="Path 980067" d="M98.623,344.666a1.739,1.739,0,0,0-2.144-.613l-5.909,2.62a2.318,2.318,0,0,0-2.291-1.97h-5a9.121,9.121,0,0,1-2.9-.472l-4.218-1.412a3.777,3.777,0,0,0-2.255-.045l-2.739.8a3.777,3.777,0,0,0-2.3,1.885,7.715,7.715,0,0,1-2.652,2.917l-4.776,3.092,5.895,5.895,6.152-4.7,11.865.8a3.585,3.585,0,0,0,1.962-.432l10.7-5.855a1.739,1.739,0,0,0,.6-2.5Z" transform="translate(-61.448 -314.955)" fill="#ffcec0"/>
                        <path id="Path_980068" data-name="Path 980068" d="M138.318,360.159l-10.7,5.855a3.588,3.588,0,0,1-1.961.433l-11.866-.8-6.152,4.7-1.859-1.859,6.423-4.909a.64.64,0,0,1,.431-.13l11.625.781a3.59,3.59,0,0,0,1.962-.432l10.7-5.855a1.731,1.731,0,0,0,.833-1.033,1.739,1.739,0,0,1,.563,3.243Z" transform="translate(-101.747 -327.946)" fill="#fdb0a0"/>
                      </g>
                    </g>
                  </g>
                </g>
              </g>
            </g>
          </g>
        </g>
        <g id="Group_1143786" data-name="Group 1143786" transform="translate(0 20.303)">
          <g id="Group_1143785" data-name="Group 1143785">
            <path id="Path_980069" data-name="Path 980069" d="M54.139,254.079a1.59,1.59,0,0,1-.444-1.5c.356-1.541,1.931-4.719,5.765-4.164a6,6,0,0,1,4.97,3.716.454.454,0,0,1-.541.61,1.974,1.974,0,0,0-1.985.5c-1.326,1.25-2.626,3.932-7.46,1.068a1.631,1.631,0,0,1-.3-.232Z" transform="translate(-53.654 -248.353)" fill="#99d53b"/>
            <path id="Path_980070" data-name="Path 980070" d="M63.893,273.064a1.975,1.975,0,0,0-1.985.5c-1.326,1.25-2.625,3.932-7.46,1.069a1.6,1.6,0,0,1-.779-1.557c4.587,2.576,5.859-.019,7.158-1.243a1.972,1.972,0,0,1,1.985-.5.455.455,0,0,0,.541-.61l-.005-.013a6.05,6.05,0,0,1,1.086,1.745A.454.454,0,0,1,63.893,273.064Z" transform="translate(-53.658 -268.674)" fill="#8dc637"/>
          </g>
        </g>
        <g id="Group_1143788" data-name="Group 1143788" transform="translate(3.231)">
          <g id="Group_1143787" data-name="Group 1143787">
            <path id="Path_980071" data-name="Path 980071" d="M98.054,25.565a1.59,1.59,0,0,1,.981,1.216c.257,1.56.011,5.1-3.745,6.045a6,6,0,0,1-6.011-1.544.454.454,0,0,1,.268-.77A1.974,1.974,0,0,0,91.192,29.3c.751-1.661.931-4.636,6.491-3.829A1.621,1.621,0,0,1,98.054,25.565Z" transform="translate(-89.148 -25.33)" fill="#a3e440"/>
            <path id="Path_980072" data-name="Path 980072" d="M104.894,33.171a6.057,6.057,0,0,1-5.18-.838,6.623,6.623,0,0,0,3.111-.086c3.756-.947,4-4.486,3.745-6.045a1.6,1.6,0,0,0-.168-.491c.279.023.574.056.887.1a1.681,1.681,0,0,1,.37.1,1.59,1.59,0,0,1,.98,1.216C108.9,28.686,108.651,32.224,104.894,33.171Z" transform="translate(-98.752 -25.675)" fill="#8dc637"/>
          </g>
        </g>
        <g id="Group_1143790" data-name="Group 1143790" transform="translate(28.787 9.233)">
          <g id="Group_1143789" data-name="Group 1143789">
            <path id="Path_980073" data-name="Path 980073" d="M375.6,137.079a1.59,1.59,0,0,1-1.5.444c-1.541-.356-4.719-1.931-4.164-5.765a6,6,0,0,1,3.716-4.97.454.454,0,0,1,.61.541,1.974,1.974,0,0,0,.5,1.985c1.25,1.327,3.932,2.626,1.069,7.46A1.629,1.629,0,0,1,375.6,137.079Z" transform="translate(-369.87 -126.754)" fill="#a3e440"/>
            <path id="Path_980074" data-name="Path 980074" d="M394.582,127.33a1.975,1.975,0,0,0,.5,1.985c1.25,1.326,3.932,2.625,1.068,7.46a1.6,1.6,0,0,1-1.557.779c2.576-4.587-.019-5.859-1.243-7.158a1.972,1.972,0,0,1-.5-1.985.455.455,0,0,0-.61-.541l-.013.005a6.05,6.05,0,0,1,1.745-1.086A.454.454,0,0,1,394.582,127.33Z" transform="translate(-390.192 -126.754)" fill="#99d53b"/>
          </g>
        </g>
      </g>
      <path id="Path_980075" data-name="Path 980075" d="M71.883,32.847a2.421,2.421,0,0,0-2.986-.853l-1.05.465a2.42,2.42,0,0,0-3.088-2.742,2.416,2.416,0,0,0-.913-1.354,2.455,2.455,0,0,0-.3-.185,16.054,16.054,0,0,0,2.46-5.281c.1.028.192.053.283.074a2.235,2.235,0,0,0,.5.057,2.278,2.278,0,0,0,.461-.048,11.066,11.066,0,0,0,1.56,1.273.683.683,0,0,0,.766-1.13A9.754,9.754,0,0,1,68.5,22.27a2.328,2.328,0,0,0,.268-.365c2.761-4.66.721-6.531-.629-7.769-.195-.179-.379-.347-.53-.508a1.3,1.3,0,0,1-.339-1.331,1.137,1.137,0,0,0-1.525-1.359,6.862,6.862,0,0,0-1.037.532,16.078,16.078,0,0,0-2.047-3.028.683.683,0,0,0-1.037.889,14.7,14.7,0,0,1,1.989,3,6.934,6.934,0,0,0-2,4.116,6.756,6.756,0,0,0-.07.888.683.683,0,0,0,.675.691h.008a.683.683,0,0,0,.682-.675,5.4,5.4,0,0,1,.056-.709,5.312,5.312,0,0,1,2.9-4.256,2.664,2.664,0,0,0,.751,2.182c.185.2.387.382.6.578,1.265,1.16,2.573,2.359.377,6.066-.012.021-.026.04-.04.06a8.8,8.8,0,0,1-1.907-5.344.683.683,0,1,0-1.365.028,10.251,10.251,0,0,0,1.709,5.5,5.186,5.186,0,0,1-2.3-1.637.683.683,0,1,0-1.087.827,6.317,6.317,0,0,0,2.129,1.74,14.664,14.664,0,0,1-1.921,4.451l-4-1.331a1.592,1.592,0,0,0-1.843.649l-.965,1.5a.228.228,0,0,1-.1.083L53.3,28.954a.227.227,0,0,1-.227-.02l-3.217-2.262a.228.228,0,0,1-.078-.277l.48-1.1a.229.229,0,0,1,.153-.13l3.5-.879a1.593,1.593,0,0,0,1.03-.819l1.184-2.311a1.6,1.6,0,0,0-.059-1.557l-1.274-2.083a1.6,1.6,0,0,0-1.359-.762H52.423a1.587,1.587,0,0,0-1.341.732l-1.765,2.749a.228.228,0,0,1-.258.095L47.633,19.9a1.588,1.588,0,0,0-1.6.408l-.8.818a.228.228,0,0,1-.288.03l-1.78-1.178a.228.228,0,0,1-.085-.1L42.034,17.32a.229.229,0,0,1,.015-.2l1.6-2.683a.226.226,0,0,1,.267-.1l2.706.892a1.6,1.6,0,0,0,1.228-.1L52.1,12.939a1.592,1.592,0,0,0,.86-1.525l-.129-1.893a1.6,1.6,0,0,0-.748-1.245L51.162,7.7a.227.227,0,0,1-.084-.293l1.489-3.06a14.5,14.5,0,0,1,6.959,2.976.683.683,0,0,0,.843-1.074,15.883,15.883,0,0,0-9.894-3.413,16.146,16.146,0,0,0-3.374.356,2.275,2.275,0,0,0-.235-.446A11.052,11.052,0,0,0,47.451.819.683.683,0,0,0,46.114.541a9.747,9.747,0,0,1-.375,1.331,2.317,2.317,0,0,0-.44-.109c-5.36-.778-6.313,1.82-6.944,3.539-.091.248-.177.483-.268.684a1.3,1.3,0,0,1-1.1.82,1.137,1.137,0,0,0-.676,1.928,6.849,6.849,0,0,0,1.066.881,15.884,15.884,0,0,0-2.945,9.266,16.074,16.074,0,0,0,.563,4.224,6.774,6.774,0,0,0-2.186,3.575,2.255,2.255,0,0,0-.009.964,11.059,11.059,0,0,0-1.274,1.561.683.683,0,1,0,1.13.766,9.764,9.764,0,0,1,.854-1.088,2.316,2.316,0,0,0,.365.268,8.171,8.171,0,0,0,4.074,1.371,4.021,4.021,0,0,0,1.281-.2,16.094,16.094,0,0,0,2.7,2.138,4.454,4.454,0,0,0-.964,1.247,7.046,7.046,0,0,1-2.417,2.659l-4.776,3.093a.683.683,0,1,0,.742,1.146l4.776-3.093a8.412,8.412,0,0,0,2.887-3.176,3.109,3.109,0,0,1,1.881-1.544l2.739-.8a3.079,3.079,0,0,1,1.847.037l4.218,1.412a9.786,9.786,0,0,0,3.112.507h5a1.635,1.635,0,0,1,0,3.27H54.951a13.748,13.748,0,0,0-3.209.38.683.683,0,1,0,.319,1.328,12.388,12.388,0,0,1,2.89-.342h6.023a3,3,0,0,0,3-2.915l5.479-2.429a1.056,1.056,0,0,1,1.3.372,1.056,1.056,0,0,1-.367,1.521l-10.7,5.855a2.891,2.891,0,0,1-1.588.35l-11.865-.8a.683.683,0,0,0-.46.139l-6.152,4.7a.683.683,0,1,0,.829,1.085L46.4,41.921l11.609.78a4.268,4.268,0,0,0,2.335-.514l10.7-5.855a2.422,2.422,0,0,0,.841-3.486Zm-5.753-1.635a1.057,1.057,0,0,1,.088,1.562l-.7.711-.01.012-1.823.808a3.021,3.021,0,0,0-1.061-1.222l2.15-1.85a1.056,1.056,0,0,1,1.354-.02Zm-3.092-1.749a1.053,1.053,0,0,1,.4,1.122l-2.328,2c-.044,0-.088,0-.132,0H58.82A16.151,16.151,0,0,0,62.6,29.39c.028-.032.055-.065.082-.1a1.05,1.05,0,0,1,.357.171ZM39.331,6.549c.111-.246.206-.5.306-.776.591-1.611,1.2-3.277,5.466-2.658.024,0,.047.009.07.014a8.8,8.8,0,0,1-4.215,3.8A.683.683,0,1,0,41.5,8.179a10.25,10.25,0,0,0,4.435-3.674,5.5,5.5,0,0,1-.384,2.238A4.021,4.021,0,0,1,42.64,9.136,5.312,5.312,0,0,1,37.6,8.074,2.664,2.664,0,0,0,39.331,6.549Zm9.746,24.187a4.44,4.44,0,0,0-2.662-.053l-2.739.8a4.427,4.427,0,0,0-.456.161,14.714,14.714,0,0,1-2.731-2.005,9.253,9.253,0,0,0,1.155-1.114c.179-.195.348-.379.508-.53a1.3,1.3,0,0,1,1.331-.339,1.137,1.137,0,0,0,1.359-1.525,6.509,6.509,0,0,0-3.316-3.5.683.683,0,0,0-.576,1.238A5.125,5.125,0,0,1,43.4,26.248,2.661,2.661,0,0,0,41.215,27c-.2.185-.382.387-.578.6-1.16,1.265-2.359,2.573-6.067.377-.021-.012-.04-.026-.059-.04a8.8,8.8,0,0,1,5.344-1.907.683.683,0,0,0-.014-1.365h-.014a10.251,10.251,0,0,0-5.5,1.71,4.375,4.375,0,0,1,3.96-3.084.683.683,0,0,0-.012-1.365h-.013a5.336,5.336,0,0,0-2.047.433,14.73,14.73,0,0,1-.416-3.477,14.533,14.533,0,0,1,2.8-8.624,6.52,6.52,0,0,0,2.425.456,7.971,7.971,0,0,0,1.952-.253,5.389,5.389,0,0,0,3.841-3.192,6.774,6.774,0,0,0,.49-2.721A14.772,14.772,0,0,1,50.475,4.2q.32,0,.637.014L49.85,6.811a1.589,1.589,0,0,0,.591,2.05l.925.575a.228.228,0,0,1,.107.178l.129,1.893a.228.228,0,0,1-.123.218l-4.254,2.191a.229.229,0,0,1-.175.014l-2.706-.892a1.584,1.584,0,0,0-1.867.7l-1.6,2.683a1.6,1.6,0,0,0-.107,1.419l1.044,2.556a1.588,1.588,0,0,0,.6.726l1.78,1.178a1.6,1.6,0,0,0,2.016-.212l.8-.818a.226.226,0,0,1,.228-.058l1.427.433a1.6,1.6,0,0,0,1.8-.664l1.765-2.749a.227.227,0,0,1,.192-.1h1.011a.229.229,0,0,1,.194.109L54.9,20.315a.229.229,0,0,1,.008.222l-1.184,2.311a.228.228,0,0,1-.147.117l-3.5.879a1.6,1.6,0,0,0-1.072.907l-.48,1.1a1.6,1.6,0,0,0,.543,1.942l3.217,2.262a1.6,1.6,0,0,0,1.59.141l2.611-1.218a1.591,1.591,0,0,0,.666-.582l.965-1.5a.228.228,0,0,1,.263-.093l3.6,1.2c-.134.169-.27.336-.411.5a14.751,14.751,0,0,1-5.811,4.085,8.417,8.417,0,0,1-2.461-.432Z" transform="translate(0 0)"/>
    </g>
  </g>
</svg>
