<svg xmlns="http://www.w3.org/2000/svg" xmlns:xlink="http://www.w3.org/1999/xlink" width="108" height="108" viewBox="0 0 108 108">
  <defs>
    <filter id="Path_904820" x="0" y="0" width="108" height="108" filterUnits="userSpaceOnUse">
      <feOffset dy="3" input="SourceAlpha"/>
      <feGaussianBlur stdDeviation="3" result="blur"/>
      <feFlood flood-opacity="0.161"/>
      <feComposite operator="in" in2="blur"/>
      <feComposite in="SourceGraphic"/>
    </filter>
  </defs>
  <g id="Group_1143914" data-name="Group 1143914" transform="translate(-201 -306)">
    <g transform="matrix(1, 0, 0, 1, 201, 306)" filter="url(#Path_904820)">
      <g id="Path_904820-2" data-name="Path 904820" transform="translate(9 6)" fill="#ecf4fa">
        <path d="M 45 88.5 C 39.12687683105469 88.5 33.43022537231445 87.35007476806641 28.06830024719238 85.08217620849609 C 22.88852500915527 82.89131164550781 18.23629951477051 79.75458526611328 14.2408504486084 75.75914764404297 C 10.24541282653809 71.76370239257812 7.108687400817871 67.11147308349609 4.917825222015381 61.93170166015625 C 2.649924993515015 56.56977462768555 1.5 50.87312316894531 1.5 45 C 1.5 39.12687683105469 2.649924993515015 33.43022537231445 4.917825222015381 28.06830024719238 C 7.108687400817871 22.88852500915527 10.24541282653809 18.23629951477051 14.2408504486084 14.2408504486084 C 18.23629951477051 10.24541282653809 22.88852500915527 7.108687400817871 28.06830024719238 4.917825222015381 C 33.43022537231445 2.649924993515015 39.12687683105469 1.5 45 1.5 C 50.87312316894531 1.5 56.56977462768555 2.649924993515015 61.93170166015625 4.917825222015381 C 67.11147308349609 7.108687400817871 71.76370239257812 10.24541282653809 75.75914764404297 14.2408504486084 C 79.75458526611328 18.23629951477051 82.89131164550781 22.88852500915527 85.08217620849609 28.06830024719238 C 87.35007476806641 33.43022537231445 88.5 39.12687683105469 88.5 45 C 88.5 50.87312316894531 87.35007476806641 56.56977462768555 85.08217620849609 61.93170166015625 C 82.89131164550781 67.11147308349609 79.75458526611328 71.76370239257812 75.75914764404297 75.75914764404297 C 71.76370239257812 79.75458526611328 67.11147308349609 82.89131164550781 61.93170166015625 85.08217620849609 C 56.56977462768555 87.35007476806641 50.87312316894531 88.5 45 88.5 Z" stroke="none"/>
        <path d="M 45 3 C 39.32871246337891 3 33.82865524291992 4.110054016113281 28.65262985229492 6.299339294433594 C 23.65165710449219 8.414573669433594 19.15968322753906 11.44334411621094 15.301513671875 15.301513671875 C 11.44334411621094 19.15968322753906 8.414573669433594 23.65165710449219 6.299339294433594 28.65262985229492 C 4.110054016113281 33.82865524291992 3 39.32871246337891 3 45 C 3 50.67128753662109 4.110054016113281 56.17134475708008 6.299339294433594 61.34737396240234 C 8.414573669433594 66.34834289550781 11.44334411621094 70.84031677246094 15.301513671875 74.698486328125 C 19.15968322753906 78.55665588378906 23.65165710449219 81.58542633056641 28.65262985229492 83.70066070556641 C 33.82865524291992 85.88994598388672 39.32871246337891 87 45 87 C 50.67128753662109 87 56.17134475708008 85.88994598388672 61.34737396240234 83.70066070556641 C 66.34834289550781 81.58542633056641 70.84031677246094 78.55665588378906 74.698486328125 74.698486328125 C 78.55665588378906 70.84031677246094 81.58542633056641 66.34834289550781 83.70066070556641 61.34737396240234 C 85.88994598388672 56.17134475708008 87 50.67128753662109 87 45 C 87 39.32871246337891 85.88994598388672 33.82865524291992 83.70066070556641 28.65262985229492 C 81.58542633056641 23.65165710449219 78.55665588378906 19.15968322753906 74.698486328125 15.301513671875 C 70.84031677246094 11.44334411621094 66.34834289550781 8.414573669433594 61.34737396240234 6.299339294433594 C 56.17134475708008 4.110054016113281 50.67128753662109 3 45 3 M 45 0 C 69.85281372070312 0 90 20.14718627929688 90 45 C 90 69.85281372070312 69.85281372070312 90 45 90 C 20.14718627929688 90 0 69.85281372070312 0 45 C 0 20.14718627929688 20.14718627929688 0 45 0 Z" stroke="none" fill="#2a5673"/>
      </g>
    </g>
    <g id="Group_1143886" data-name="Group 1143886" transform="translate(228.999 329)">
      <g id="Group_1143884" data-name="Group 1143884" transform="translate(0.871 0.871)">
        <g id="Group_1143874" data-name="Group 1143874" transform="translate(33.097 8.71)">
          <path id="Path_980254" data-name="Path 980254" d="M45.968,30.162h5.226V26.678h-8.71L39,23.194H49.452V19.71H39V11l3.484,1.55,5.226,2.317,6.968,3.1V39.246a2.715,2.715,0,0,0-.836.74L50.758,44.1a4.368,4.368,0,0,1-3.048,1.716V37.13h3.484V33.646H47.71V31.9Z" transform="translate(-39 -11)" fill="#ccd1d9"/>
        </g>
        <g id="Group_1143875" data-name="Group 1143875" transform="translate(20.904 19.162)">
          <path id="Path_980255" data-name="Path 980255" d="M37.194,23v1.742l-1.742,1.742-3.484,3.484-3.484,3.484V42.71a5.734,5.734,0,0,0-.732.366L25,44.653V23H37.194Z" transform="translate(-25 -23)" fill="#aab2bd"/>
        </g>
        <g id="Group_1143876" data-name="Group 1143876">
          <path id="Path_980256" data-name="Path 980256" d="M28,19.8v.366H21.9v6.846A13.917,13.917,0,1,1,28,19.8Z" transform="translate(-1 -1)" fill="#69d6f4"/>
        </g>
        <g id="Group_1143877" data-name="Group 1143877" transform="translate(41.807 31.355)">
          <path id="Path_980257" data-name="Path 980257" d="M49,37h3.484v3.484H49Z" transform="translate(-49 -37)" fill="#69d6f4"/>
        </g>
        <g id="Group_1143878" data-name="Group 1143878" transform="translate(36.581 24.388)">
          <path id="Path_980258" data-name="Path 980258" d="M51.71,29v3.484H46.484L43,29Z" transform="translate(-43 -29)" fill="#69d6f4"/>
        </g>
        <g id="Group_1143879" data-name="Group 1143879" transform="translate(33.097 17.42)">
          <path id="Path_980259" data-name="Path 980259" d="M49.452,21v3.484H39V21Z" transform="translate(-39 -21)" fill="#69d6f4"/>
        </g>
        <g id="Group_1143880" data-name="Group 1143880" transform="translate(24.388 20.904)">
          <path id="Path_980260" data-name="Path 980260" d="M37.71,25l3.484,3.484,3.484,3.484L46.42,33.71H29l3.484-3.484,3.484-3.484Z" transform="translate(-29 -25)" fill="#ff826e"/>
        </g>
        <g id="Group_1143881" data-name="Group 1143881" transform="translate(24.388 29.613)">
          <path id="Path_980261" data-name="Path 980261" d="M29,35H46.42V48.91a3.545,3.545,0,0,1-.435.026H37.71a3.479,3.479,0,0,0,3.484-3.484,1.747,1.747,0,0,0-1.742-1.742H31.717A7.044,7.044,0,0,0,29,44.259Z" transform="translate(-29 -35)" fill="#e6e9ed"/>
        </g>
        <g id="Group_1143882" data-name="Group 1143882" transform="translate(0 40.065)">
          <path id="Path_980262" data-name="Path 980262" d="M20.162,48.742v8.71a1.747,1.747,0,0,1-1.742,1.742H1V47H18.42A1.747,1.747,0,0,1,20.162,48.742Z" transform="translate(-1 -47)" fill="#fcd770"/>
        </g>
        <g id="Group_1143883" data-name="Group 1143883" transform="translate(19.162 36.581)">
          <path id="Path_980263" data-name="Path 980263" d="M36.936,49.968H45.21a3.545,3.545,0,0,0,.435-.026,4.368,4.368,0,0,0,3.048-1.716l3.083-4.111a2.715,2.715,0,0,1,.836-.74A2.761,2.761,0,0,1,54.007,43a2.082,2.082,0,0,1,2.09,2.09,2.069,2.069,0,0,1-.253.984l-5.5,7.882a6.985,6.985,0,0,1-5.714,2.979H23v-8.71l1.742-.993,2.752-1.576a5.733,5.733,0,0,1,.732-.366,7.044,7.044,0,0,1,2.717-.549h7.734a1.747,1.747,0,0,1,1.742,1.742,3.479,3.479,0,0,1-3.484,3.484Z" transform="translate(-23 -43)" fill="#f0d0b4"/>
        </g>
      </g>
      <g id="Group_1143885" data-name="Group 1143885">
        <path id="Path_980264" data-name="Path 980264" d="M51.043,36.581a3.643,3.643,0,0,0-.526.043V15.983l-6.968-3.1v-9.4H41.807v8.628l-3.484-1.549v-3.6H36.581V9.789L33.1,8.24V19.162H28.948A14.812,14.812,0,1,0,20.9,28.294V41.177l-.358.2a2.6,2.6,0,0,0-2.255-1.317H0V54H18.291a2.609,2.609,0,0,0,2.453-1.742H41.66a7.846,7.846,0,0,0,6.425-3.348l5.509-7.883.053-.087a2.957,2.957,0,0,0-2.6-4.359ZM48.775,17.114v20.26a3.654,3.654,0,0,0-.664.673L45.03,42.155a3.476,3.476,0,0,1-1.481,1.116V36.581h3.484V31.355H43.549V30.124l-.51-.51h3.994V24.388h-9.22l-1.742-1.742h9.22V17.42H34.839v-6.5ZM36.581,38.484v-1.9H34.839v1.742H33.1V36.581H31.355v1.742H29.613V36.581H27.871V38.33a7.812,7.812,0,0,0-1.742.224v-7.2H41.807V43.549H37.43a4.31,4.31,0,0,0,.894-2.613A2.609,2.609,0,0,0,36.581,38.484ZM33.968,23.006l6.607,6.607H27.361ZM43.549,33.1h1.742v1.742H43.549ZM39.555,26.13h5.736v1.742H41.3ZM34.839,20.9V19.162h8.71V20.9Zm-7.719-1.742H26.13V15.678H24.388v3.484H22.121a18.347,18.347,0,0,0,0-8.71h4.988a12.914,12.914,0,0,1,.011,8.71ZM14.807,27.647A17.13,17.13,0,0,1,9.885,20.9h9.843A17.122,17.122,0,0,1,14.807,27.647Zm-6.1-12.84a16.4,16.4,0,0,1,.582-4.355H20.323a16.6,16.6,0,0,1,0,8.71H9.292a16.4,16.4,0,0,1-.582-4.355Zm6.1-12.84A17.13,17.13,0,0,1,19.729,8.71H9.885a17.13,17.13,0,0,1,4.922-6.743ZM26.352,8.71H21.613a18.414,18.414,0,0,0-4.178-6.7A13.1,13.1,0,0,1,26.352,8.71Zm-14.175-6.7A18.426,18.426,0,0,0,8,8.71H3.261A13.1,13.1,0,0,1,12.177,2.008ZM2.5,10.452H7.492a18.347,18.347,0,0,0,0,8.71H2.5a12.824,12.824,0,0,1,0-8.71ZM3.261,20.9H8a18.414,18.414,0,0,0,4.178,6.7,13.1,13.1,0,0,1-8.917-6.7ZM17.44,27.6A18.572,18.572,0,0,0,20.9,22.632v3.725A13.037,13.037,0,0,1,17.44,27.6Zm5.206-6.7H33.1v.51l-1.232,1.232H24.388v1.742h5.736L28.382,26.13H24.388v1.742H26.64l-2.252,2.252v9.087c-.1.051-.2.09-.3.145l-1.445.827ZM19.162,51.388a.872.872,0,0,1-.871.871H1.742V41.807H18.291a.872.872,0,0,1,.871.871ZM52.134,40.077l-5.477,7.835a6.1,6.1,0,0,1-5,2.6H20.9V43.183l4.051-2.315a6.116,6.116,0,0,1,3.026-.8h7.73a.872.872,0,0,1,.871.871,2.616,2.616,0,0,1-2.613,2.613H29.613v1.742H42.243a5.252,5.252,0,0,0,4.181-2.09L49.5,39.093a1.929,1.929,0,0,1,1.538-.77,1.217,1.217,0,0,1,1.216,1.216,1.232,1.232,0,0,1-.125.538Z"/>
        <path id="Path_980265" data-name="Path 980265" d="M32,38h1.742v1.742H32Z" transform="translate(-4.129 -4.903)"/>
        <path id="Path_980266" data-name="Path 980266" d="M36,38h1.742v1.742H36Z" transform="translate(-4.645 -4.903)"/>
        <path id="Path_980267" data-name="Path 980267" d="M40,38h1.742v1.742H40Z" transform="translate(-5.161 -4.903)"/>
        <path id="Path_980268" data-name="Path 980268" d="M44,42h1.742v1.742H44Z" transform="translate(-5.677 -5.419)"/>
        <path id="Path_980269" data-name="Path 980269" d="M44,38h1.742v1.742H44Z" transform="translate(-5.677 -4.903)"/>
      </g>
    </g>
  </g>
</svg>
