<svg xmlns="http://www.w3.org/2000/svg" xmlns:xlink="http://www.w3.org/1999/xlink" width="83" height="83" viewBox="0 0 83 83">
  <defs>
    <filter id="Fondo" x="0" y="0" width="83" height="83" filterUnits="userSpaceOnUse">
      <feOffset dy="3" input="SourceAlpha"/>
      <feGaussianBlur stdDeviation="3" result="blur"/>
      <feFlood flood-opacity="0.161"/>
      <feComposite operator="in" in2="blur"/>
      <feComposite in="SourceGraphic"/>
    </filter>
  </defs>
  <g id="Group_1143825" data-name="Group 1143825" transform="translate(-666 -1284)">
    <g transform="matrix(1, 0, 0, 1, 666, 1284)" filter="url(#Fondo)">
      <g id="Fondo-2" data-name="Fondo" transform="translate(9 6)" fill="#e8f5f8" stroke="#145a74" stroke-width="3">
        <circle cx="32.5" cy="32.5" r="32.5" stroke="none"/>
        <circle cx="32.5" cy="32.5" r="31" fill="none"/>
      </g>
    </g>
    <g id="Group_1143824" data-name="Group 1143824" transform="translate(686 1289.652)">
      <g id="Group_1143822" data-name="Group 1143822" transform="translate(0.645 12.321)">
        <g id="Group_1143805" data-name="Group 1143805" transform="translate(14.075 0)">
          <path id="Path_980133" data-name="Path 980133" d="M179.075,35.116l5-3.635a4.3,4.3,0,0,0,1.771-3.476V21.324a2.148,2.148,0,0,0-2.148-2.148H173.438a2.148,2.148,0,0,0-2.148,2.148v6.681a4.3,4.3,0,0,0,1.771,3.476l5,3.635a.86.86,0,0,0,1.01,0Z" transform="translate(-171.29 -19.176)" fill="#a2e62e"/>
          <path id="Path_980134" data-name="Path 980134" d="M232.8,19.176h-.91v7.181a4.3,4.3,0,0,1-1.771,3.476l-5.114,3.715,2.158,1.568a.86.86,0,0,0,1.01,0l5-3.635a4.3,4.3,0,0,0,1.771-3.476V21.324a2.148,2.148,0,0,0-2.148-2.148Z" transform="translate(-220.394 -19.176)" fill="#97d729"/>
          <g id="Group_1143804" data-name="Group 1143804" transform="translate(2.555 3.766)">
            <path id="Path_980135" data-name="Path 980135" d="M204.942,69.823a1.3,1.3,0,0,1-.919-.381L201.4,66.816a1.3,1.3,0,0,1,1.837-1.837l1.709,1.709,3.306-3.307a1.3,1.3,0,1,1,1.837,1.837l-4.225,4.225A1.3,1.3,0,0,1,204.942,69.823Z" transform="translate(-201.016 -63)" fill="#fff"/>
          </g>
        </g>
        <g id="Group_1143810" data-name="Group 1143810" transform="translate(9.288 15.897)">
          <g id="Group_1143807" data-name="Group 1143807" transform="translate(15.446)">
            <path id="Path_980136" data-name="Path 980136" d="M301,286.5h-2.653a3.019,3.019,0,0,0-3.019,3.019V290.8a2.923,2.923,0,0,1,.846,2.058V296.6h3.116v-1.082a3.356,3.356,0,0,1,.989-2.389l3.736-3.736A3.018,3.018,0,0,0,301,286.5Z" transform="translate(-295.327 -279.426)" fill="#26a6fe"/>
            <g id="Group_1143806" data-name="Group 1143806" transform="translate(0.846 7.079)">
              <path id="Path_980137" data-name="Path 980137" d="M362.992,292.115l2.689-2.689a3.018,3.018,0,0,0-2.889-2.887,3.009,3.009,0,0,1,.2,1.082Z" transform="translate(-357.84 -286.539)" fill="#0593fc"/>
              <path id="Path_980138" data-name="Path 980138" d="M305.167,381.5v1.934h3.116v-1.082a3.4,3.4,0,0,1,.108-.851Z" transform="translate(-305.167 -373.338)" fill="#0593fc"/>
            </g>
            <circle id="Ellipse_11558" data-name="Ellipse 11558" cx="2.465" cy="2.465" r="2.465" transform="translate(1.88 0)" fill="#ffb09e"/>
            <path id="Path_980139" data-name="Path 980139" d="M326.3,204.158c-.062,0-.124,0-.185.008a2.464,2.464,0,0,1-1.657,4.1,2.465,2.465,0,1,0,1.841-4.1Z" transform="translate(-321.956 -204.158)" fill="#f89580"/>
          </g>
          <g id="Group_1143808" data-name="Group 1143808" transform="translate(0 0)">
            <path id="Path_980140" data-name="Path 980140" d="M123.359,296.6v-3.744a2.924,2.924,0,0,1,.914-2.124v-1.211a3.019,3.019,0,0,0-3.019-3.019H118.6a3.018,3.018,0,0,0-3.015,2.89l3.736,3.736a3.356,3.356,0,0,1,.989,2.389V296.6Z" transform="translate(-115.586 -279.426)" fill="#26a6fe"/>
            <path id="Path_980141" data-name="Path 980141" d="M172.475,296.628v-3.744a2.924,2.924,0,0,1,.914-2.124V289.55a3.018,3.018,0,0,0-2.912-3.016,3.01,3.01,0,0,1,.2,1.082v6.219a.859.859,0,0,1-.859.859h-.5a3.4,3.4,0,0,1,.108.851v1.082Z" transform="translate(-164.701 -279.455)" fill="#0593fc"/>
            <circle id="Ellipse_11559" data-name="Ellipse 11559" cx="2.465" cy="2.465" r="2.465" transform="translate(1.877)" fill="#ffb09e"/>
          </g>
          <g id="Group_1143809" data-name="Group 1143809" transform="translate(7.687 3.335)">
            <path id="Path_980142" data-name="Path 980142" d="M213.732,332.071v-3.744a3.019,3.019,0,0,0-3.019-3.019h-2.653a3.019,3.019,0,0,0-3.019,3.019v3.744Z" transform="translate(-205.042 -318.233)" fill="#8ac9fe"/>
            <path id="Path_980143" data-name="Path 980143" d="M211.5,326.53a3.013,3.013,0,0,1,.164.98v2.884a.859.859,0,0,1-.859.859h-5.765v1.934h8.69v-3.744A3.02,3.02,0,0,0,211.5,326.53Z" transform="translate(-205.042 -319.349)" fill="#60b7ff"/>
            <circle id="Ellipse_11560" data-name="Ellipse 11560" cx="2.465" cy="2.465" r="2.465" transform="translate(1.88)" fill="#ffb09e"/>
          </g>
        </g>
        <g id="Group_1143820" data-name="Group 1143820" transform="translate(0 13.583)">
          <g id="Group_1143815" data-name="Group 1143815" transform="translate(0 0)">
            <g id="Group_1143814" data-name="Group 1143814">
              <g id="Group_1143813" data-name="Group 1143813">
                <g id="Group_1143812" data-name="Group 1143812">
                  <path id="Path_980144" data-name="Path 980144" d="M21.6,203.924v-8.286a3.464,3.464,0,0,0-1.015-2.45l-6.695-6.695a.954.954,0,0,0-1.346-.006,2.923,2.923,0,0,0-.331.395v-6.308a3.341,3.341,0,0,0-3.325-3.341A1.379,1.379,0,0,0,7.5,178.609v11.675a3.682,3.682,0,0,0,1.078,2.6l6,6a2.165,2.165,0,0,1,.634,1.531v3.5a.43.43,0,0,0,.43.43H21.17A.43.43,0,0,0,21.6,203.924Z" transform="translate(-7.5 -177.233)" fill="#ffb09e"/>
                  <g id="Group_1143811" data-name="Group 1143811" transform="translate(7.715 14.6)">
                    <path id="Path_980145" data-name="Path 980145" d="M103.657,350.935a3.464,3.464,0,0,0-1.015-2.45l-1.355-1.355v9.012A1.289,1.289,0,0,1,100,357.431H97.271v1.79a.43.43,0,0,0,.43.43h5.526a.43.43,0,0,0,.43-.43Z" transform="translate(-97.271 -347.13)" fill="#f89580"/>
                  </g>
                </g>
              </g>
            </g>
          </g>
          <g id="Group_1143819" data-name="Group 1143819" transform="translate(28.61)">
            <g id="Group_1143818" data-name="Group 1143818">
              <g id="Group_1143817" data-name="Group 1143817">
                <g id="Group_1143816" data-name="Group 1143816">
                  <path id="Path_980146" data-name="Path 980146" d="M340.422,203.924v-8.286a3.464,3.464,0,0,1,1.015-2.45l6.695-6.695a.954.954,0,0,1,1.346-.006,2.924,2.924,0,0,1,.331.395v-6.308a3.341,3.341,0,0,1,3.325-3.341,1.38,1.38,0,0,1,1.388,1.376v11.675a3.682,3.682,0,0,1-1.078,2.6l-6,6a2.165,2.165,0,0,0-.634,1.531v3.5a.43.43,0,0,1-.43.43h-5.526A.43.43,0,0,1,340.422,203.924Z" transform="translate(-340.422 -177.233)" fill="#ffb09e"/>
                  <path id="Path_980147" data-name="Path 980147" d="M354.522,178.608a1.372,1.372,0,0,0-1.361-1.376,3.345,3.345,0,0,0-.83.1v10.73a3.682,3.682,0,0,1-1.078,2.6l-6,6a2.165,2.165,0,0,0-.634,1.531v2.644a1.289,1.289,0,0,1-1.289,1.289h-2.905v1.79a.43.43,0,0,0,.43.43h5.526a.43.43,0,0,0,.43-.43v-3.5a2.165,2.165,0,0,1,.634-1.531l6-6a3.682,3.682,0,0,0,1.078-2.6Z" transform="translate(-340.422 -177.232)" fill="#f89580"/>
                </g>
              </g>
            </g>
          </g>
        </g>
        <g id="Group_1143821" data-name="Group 1143821" transform="translate(11.789 15.897)">
          <path id="Path_980148" data-name="Path 980148" d="M236.016,242.966c-.062,0-.124,0-.185.008a2.464,2.464,0,0,1-1.657,4.1,2.465,2.465,0,1,0,1.842-4.1Z" transform="translate(-226.484 -239.631)" fill="#f89580"/>
          <path id="Path_980149" data-name="Path 980149" d="M146.524,204.158c-.062,0-.124,0-.185.008a2.464,2.464,0,0,1-1.657,4.1,2.465,2.465,0,1,0,1.842-4.1Z" transform="translate(-144.682 -204.158)" fill="#f89580"/>
        </g>
      </g>
      <g id="Group_1143823" data-name="Group 1143823" transform="translate(0 11.676)">
        <path id="Path_980150" data-name="Path 980150" d="M165.826,25.147l5,3.635a1.5,1.5,0,0,0,1.768,0l5-3.635a4.956,4.956,0,0,0,2.037-4V14.469a2.8,2.8,0,0,0-2.793-2.793H166.582a2.8,2.8,0,0,0-2.793,2.793v2.477a.645.645,0,1,0,1.289,0V14.469a1.506,1.506,0,0,1,1.5-1.5h10.262a1.506,1.506,0,0,1,1.5,1.5V21.15a3.663,3.663,0,0,1-1.506,2.955l-5,3.635a.214.214,0,0,1-.253,0l-5-3.635a3.663,3.663,0,0,1-1.506-2.955v-1.2a.645.645,0,1,0-1.289,0v1.2a4.956,4.956,0,0,0,2.037,4Z" transform="translate(-149.714 -11.676)"/>
        <path id="Path_980151" data-name="Path 980151" d="M196.711,63.053a1.944,1.944,0,0,0,2.749,0l4.225-4.225a1.944,1.944,0,0,0-2.749-2.748l-2.851,2.851-1.253-1.253a1.943,1.943,0,1,0-2.749,2.748ZM195,58.589a.654.654,0,0,1,.926,0L197.63,60.3a.644.644,0,0,0,.911,0l3.306-3.307a.655.655,0,0,1,.926.926l-4.225,4.225a.654.654,0,0,1-.926,0L195,59.515a.655.655,0,0,1,0-.926Z" transform="translate(-176.885 -51.744)"/>
        <path id="Path_980152" data-name="Path 980152" d="M43.4,170.322a2.014,2.014,0,0,0-1.431-.591h-.01A3.994,3.994,0,0,0,38,173.717v5.036a1.61,1.61,0,0,0-.357-.041,1.59,1.59,0,0,0-1.132.469l-2.114,2.114a3.685,3.685,0,0,0-3.343-2.174H28.4a3.667,3.667,0,0,0-3.662,3.632,3.642,3.642,0,0,0-1.443-.3H20.639a3.642,3.642,0,0,0-1.376.269,3.667,3.667,0,0,0-3.662-3.6H12.949a3.685,3.685,0,0,0-3.343,2.174l-2.114-2.114A1.592,1.592,0,0,0,6,178.753v-5.036a3.994,3.994,0,0,0-3.967-3.986,2.025,2.025,0,0,0-1.441.591,2,2,0,0,0-.6,1.43v11.675a4.3,4.3,0,0,0,1.267,3.059l1.281,1.281a.645.645,0,1,0,.911-.912l-1.281-1.281a3.017,3.017,0,0,1-.89-2.147V171.752a.724.724,0,0,1,.215-.516.734.734,0,0,1,.522-.215h0a2.7,2.7,0,0,1,2.684,2.7v6.116a3.554,3.554,0,0,0,.514,4.366l2.9,2.9a.645.645,0,1,0,.911-.912l-2.9-2.9a2.26,2.26,0,0,1,0-3.2.311.311,0,0,1,.44,0l6.695,6.695a2.8,2.8,0,0,1,.826,1.994v8.071H9v-3.289a2.791,2.791,0,0,0-.823-1.987l-2.594-2.594a.645.645,0,0,0-.911.912l2.594,2.594a1.51,1.51,0,0,1,.445,1.075v3.5a1.075,1.075,0,0,0,1.074,1.074h5.526a1.075,1.075,0,0,0,1.074-1.074v-6.559H28.61v.816a.645.645,0,0,0,1.289,0v-2.543a2.8,2.8,0,0,1,.826-1.994l6.695-6.695a.311.311,0,0,1,.44,0,2.26,2.26,0,0,1,0,3.2l-2.9,2.9a.645.645,0,0,0,.911.912l2.9-2.9a3.554,3.554,0,0,0,.514-4.366v-6.116a2.7,2.7,0,0,1,2.684-2.7h0a.734.734,0,0,1,.522.215.723.723,0,0,1,.215.516v11.675a3.017,3.017,0,0,1-.89,2.147l-6,6A2.791,2.791,0,0,0,35,193.563v3.289H29.9v-2.52a.645.645,0,0,0-1.289,0v2.735a1.075,1.075,0,0,0,1.074,1.074H35.21a1.075,1.075,0,0,0,1.074-1.074v-3.5a1.51,1.51,0,0,1,.445-1.075l6-6A4.3,4.3,0,0,0,44,183.427V171.752A2,2,0,0,0,43.4,170.322ZM17.976,183.609a3.649,3.649,0,0,0-1,2.511v3.1H15.389v-.438a4.082,4.082,0,0,0-1.2-2.905l-3.563-3.563a2.387,2.387,0,0,1,2.326-1.9H15.6a2.377,2.377,0,0,1,2.374,2.374Zm7.691,5.61h-7.4v-3.1a2.377,2.377,0,0,1,2.374-2.374h2.653a2.377,2.377,0,0,1,2.374,2.374Zm4.147-3.343a4.082,4.082,0,0,0-1.2,2.905v.438H26.955v-3.1a3.648,3.648,0,0,0-.932-2.437v-.9A2.377,2.377,0,0,1,28.4,180.41h2.653a2.387,2.387,0,0,1,2.326,1.9Z" transform="translate(0 -156.148)"/>
        <path id="Path_980153" data-name="Path 980153" d="M309.7,199.768a3.11,3.11,0,1,0,3.11-3.11A3.113,3.113,0,0,0,309.7,199.768Zm4.931,0a1.821,1.821,0,1,1-1.821-1.821A1.823,1.823,0,0,1,314.632,199.768Z" transform="translate(-283.087 -180.761)"/>
        <path id="Path_980154" data-name="Path 980154" d="M133.033,202.878a3.11,3.11,0,1,0-3.11-3.11A3.113,3.113,0,0,0,133.033,202.878Zm0-4.931a1.821,1.821,0,1,1-1.821,1.821A1.823,1.823,0,0,1,133.033,197.947Z" transform="translate(-118.758 -180.761)"/>
        <path id="Path_980155" data-name="Path 980155" d="M219.417,238.576a3.11,3.11,0,1,0,3.11-3.11A3.113,3.113,0,0,0,219.417,238.576Zm4.931,0a1.821,1.821,0,1,1-1.821-1.821A1.823,1.823,0,0,1,224.348,238.576Z" transform="translate(-200.561 -216.234)"/>
      </g>
    </g>
  </g>
</svg>
