<svg xmlns="http://www.w3.org/2000/svg" xmlns:xlink="http://www.w3.org/1999/xlink" width="83" height="83" viewBox="0 0 83 83">
  <defs>
    <filter id="Fondo" x="0" y="0" width="83" height="83" filterUnits="userSpaceOnUse">
      <feOffset dy="3" input="SourceAlpha"/>
      <feGaussianBlur stdDeviation="3" result="blur"/>
      <feFlood flood-opacity="0.161"/>
      <feComposite operator="in" in2="blur"/>
      <feComposite in="SourceGraphic"/>
    </filter>
  </defs>
  <g id="Group_1143801" data-name="Group 1143801" transform="translate(-193 -393)">
    <g transform="matrix(1, 0, 0, 1, 193, 393)" filter="url(#Fondo)">
      <g id="Fondo-2" data-name="Fondo" transform="translate(9 6)" fill="#e8f5f9" stroke="#145a74" stroke-width="3">
        <circle cx="32.5" cy="32.5" r="32.5" stroke="none"/>
        <circle cx="32.5" cy="32.5" r="31" fill="none"/>
      </g>
    </g>
    <g id="Layer_9" data-name="Layer 9" transform="translate(211.987 410.487)">
      <path id="Path_980094" data-name="Path 980094" d="M22,2H47.823V40.734H22Z" transform="translate(-7.443 -0.354)" fill="#e2e7f6"/>
      <path id="Path_980095" data-name="Path 980095" d="M22,2H45.241V38.152H22Z" transform="translate(-7.443 -0.354)" fill="#f2f2f2"/>
      <path id="Path_980096" data-name="Path 980096" d="M32,46h3.873v7.747H32Z" transform="translate(-10.987 -15.949)" fill="#5e87ca"/>
      <path id="Path_980097" data-name="Path 980097" d="M33.937,51.165V46H32v5.81h1.291A.646.646,0,0,0,33.937,51.165Z" transform="translate(-10.987 -15.949)" fill="#78a0d4"/>
      <path id="Path_980098" data-name="Path 980098" d="M52,34h3.873V49.494H52Z" transform="translate(-18.076 -11.696)" fill="#3b5892"/>
      <path id="Path_980099" data-name="Path 980099" d="M53.937,46.911V34H52V47.557h1.291A.646.646,0,0,0,53.937,46.911Z" transform="translate(-18.076 -11.696)" fill="#4c6cb5"/>
      <path id="Path_980100" data-name="Path 980100" d="M42,42h3.873V52.329H42Z" transform="translate(-14.532 -14.531)" fill="#4c6cb5"/>
      <path id="Path_980101" data-name="Path 980101" d="M43.937,49.747V42H42v8.392h1.291A.646.646,0,0,0,43.937,49.747Z" transform="translate(-14.532 -14.531)" fill="#5e87ca"/>
      <path id="Path_980102" data-name="Path 980102" d="M16.62,21.747l3.339-3.339A6.234,6.234,0,0,0,21.785,14H5a6.234,6.234,0,0,0,1.826,4.408l3.339,3.339Z" transform="translate(-1.418 -4.608)" fill="#f6b940"/>
      <path id="Path_980103" data-name="Path 980103" d="M15.557,26H9.1L5.995,29.106A13.64,13.64,0,0,0,4.873,47.124,5.483,5.483,0,0,0,9.2,49.241h6.258a5.483,5.483,0,0,0,4.325-2.116,13.636,13.636,0,0,0-1.12-18.018Z" transform="translate(-0.354 -8.861)" fill="#f4a93c"/>
      <circle id="Ellipse_11554" data-name="Ellipse 11554" cx="7.156" cy="7.156" r="7.156" transform="translate(4.498 23.215)" fill="#f9d266"/>
      <path id="Path_980104" data-name="Path 980104" d="M19.91,41.457a7.089,7.089,0,0,0-3.3-5.989A7.094,7.094,0,0,0,10.3,48.092a7.086,7.086,0,0,0,9.614-6.635Z" transform="translate(-2.126 -12.052)" fill="#fce797"/>
      <path id="Path_980105" data-name="Path 980105" d="M19.165,41.873v-.646a1.937,1.937,0,0,0-1.937-1.937V38H15.937v1.291A1.937,1.937,0,0,0,14,41.228v.646a1.937,1.937,0,0,0,1.937,1.937v1.937a.646.646,0,0,1-.646-.646v-.646H14V45.1a1.937,1.937,0,0,0,1.937,1.937v1.291h1.291V47.038A1.937,1.937,0,0,0,19.165,45.1v-.646a1.937,1.937,0,0,0-1.937-1.937V40.582a.646.646,0,0,1,.646.646v.646Zm-1.291,2.582V45.1a.646.646,0,0,1-.646.646V43.81A.646.646,0,0,1,17.873,44.456Zm-1.937-1.937a.646.646,0,0,1-.646-.646v-.646a.646.646,0,0,1,.646-.646Z" transform="translate(-4.608 -13.114)" fill="#f4a93c"/>
      <path id="Path_980106" data-name="Path 980106" d="M32,24.038l6.456-6.456,2.582,2.582,3.873-3.873L43.62,15h5.165v5.165l-1.291-1.291-5.81,5.81L39.1,22.1,34.582,26.62Z" transform="translate(-10.987 -4.962)" fill="#6bc13b"/>
      <g id="Group_1143800" data-name="Group 1143800" transform="translate(16.494 3.582)">
        <path id="Path_980107" data-name="Path 980107" d="M25,5h7.747V6.291H25Z" transform="translate(-25 -5)" fill="#c8cded"/>
        <path id="Path_980108" data-name="Path 980108" d="M39,5h1.291V6.291H39Z" transform="translate(-29.962 -5)" fill="#c8cded"/>
        <path id="Path_980109" data-name="Path 980109" d="M25,9h7.747v1.291H25Z" transform="translate(-25 -6.418)" fill="#c8cded"/>
        <path id="Path_980110" data-name="Path 980110" d="M39,9h1.291v1.291H39Z" transform="translate(-29.962 -6.418)" fill="#c8cded"/>
      </g>
      <path id="Path_980111" data-name="Path 980111" d="M15.378,22.6A10.334,10.334,0,0,1,14.291,18H13a11.644,11.644,0,0,0,1.216,5.165h1.443Z" transform="translate(-4.253 -6.025)" fill="#f9d266"/>
      <path id="Path_980112" data-name="Path 980112" d="M18.882,23.165h1.443A11.644,11.644,0,0,0,21.54,18H20.249a10.334,10.334,0,0,1-1.087,4.6Z" transform="translate(-6.338 -6.025)" fill="#f9d266"/>
      <path id="Path_980113" data-name="Path 980113" d="M21.494,41.747a7.747,7.747,0,1,0-7.747,7.747,7.747,7.747,0,0,0,7.747-7.747ZM13.747,48.2A6.456,6.456,0,1,1,20.2,41.747,6.456,6.456,0,0,1,13.747,48.2Z" transform="translate(-1.772 -11.696)"/>
      <path id="Path_980114" data-name="Path 980114" d="M17.228,39.291V38H15.937v1.291A1.937,1.937,0,0,0,14,41.228v.646a1.937,1.937,0,0,0,1.937,1.937v1.937a.646.646,0,0,1-.646-.646v-.646H14V45.1a1.937,1.937,0,0,0,1.937,1.937v1.291h1.291V47.038A1.937,1.937,0,0,0,19.165,45.1v-.646a1.937,1.937,0,0,0-1.937-1.937V40.582a.646.646,0,0,1,.646.646v.646h1.291v-.646A1.937,1.937,0,0,0,17.228,39.291Zm.646,5.165V45.1a.646.646,0,0,1-.646.646V43.81A.646.646,0,0,1,17.873,44.456Zm-1.937-1.937a.646.646,0,0,1-.646-.646v-.646a.646.646,0,0,1,.646-.646Z" transform="translate(-4.608 -13.114)"/>
      <path id="Path_980115" data-name="Path 980115" d="M40.38,1H14.557a.646.646,0,0,0-.646.646v7.1H3.582a.646.646,0,0,0-.646.646,6.832,6.832,0,0,0,2.015,4.865l2.882,2.882-2.65,2.65A14.192,14.192,0,0,0,1,29.89,14.351,14.351,0,0,0,4.009,38.66a6.086,6.086,0,0,0,4.837,2.366H40.38a.646.646,0,0,0,.646-.646V1.646A.646.646,0,0,0,40.38,1ZM5.865,13.345a5.547,5.547,0,0,1-1.6-3.307h15.42a5.547,5.547,0,0,1-1.6,3.307l-3.149,3.149h-.653a11.651,11.651,0,0,0,.92-4.519H13.911a10.347,10.347,0,0,1-1.05,4.519H11.089a10.335,10.335,0,0,1-1.051-4.519H8.747a11.651,11.651,0,0,0,.92,4.519H9.014Zm8.692,26.39H8.846a4.8,4.8,0,0,1-3.817-1.867A13.056,13.056,0,0,1,2.291,29.89,12.911,12.911,0,0,1,6.1,20.7l2.914-2.917h5.921L17.853,20.7a12.911,12.911,0,0,1,3.806,9.188,13.056,13.056,0,0,1-2.737,7.977A4.8,4.8,0,0,1,15.1,39.734ZM22.916,30.7h1.325v6.456H21.658V35.8a14.365,14.365,0,0,0,1.258-5.1Zm16.818,9.038H18.862A6.157,6.157,0,0,0,19.94,38.66c.166-.212.316-.435.468-.657a.64.64,0,0,0,.6.44h3.873a.646.646,0,0,0,.646-.646V30.051a.646.646,0,0,0-.646-.646H22.926a14.172,14.172,0,0,0-4.16-9.616l-2.65-2.65L19,14.257a6.832,6.832,0,0,0,2.015-4.865.646.646,0,0,0-.646-.646H15.2V2.291H39.734Z"/>
      <path id="Path_980116" data-name="Path 980116" d="M55.519,33H51.646a.646.646,0,0,0-.646.646V49.139a.646.646,0,0,0,.646.646h3.873a.646.646,0,0,0,.646-.646V33.646A.646.646,0,0,0,55.519,33Zm-.646,15.494H52.291v-14.2h2.582Z" transform="translate(-17.721 -11.342)"/>
      <path id="Path_980117" data-name="Path 980117" d="M45.519,41H41.646a.646.646,0,0,0-.646.646V51.975a.646.646,0,0,0,.646.646h3.873a.646.646,0,0,0,.646-.646V41.646A.646.646,0,0,0,45.519,41Zm-.646,10.329H42.291V42.291h2.582Z" transform="translate(-14.177 -14.177)"/>
      <path id="Path_980118" data-name="Path 980118" d="M31.189,24.14l2.582,2.582a.646.646,0,0,0,.913,0l4.063-4.063,2.126,2.126a.646.646,0,0,0,.913,0l5.354-5.354.835.835a.646.646,0,0,0,1.1-.456V14.646A.646.646,0,0,0,48.431,14H43.266a.646.646,0,0,0-.456,1.1l.835.835L40.684,18.9l-2.126-2.126a.646.646,0,0,0-.913,0l-6.456,6.456A.646.646,0,0,0,31.189,24.14Zm6.912-6,2.126,2.126a.646.646,0,0,0,.913,0l3.873-3.873a.646.646,0,0,0,0-.913l-.189-.189h2.961v2.961l-.189-.189a.646.646,0,0,0-.913,0l-5.354,5.354L39.2,21.29a.646.646,0,0,0-.913,0l-4.063,4.063-1.669-1.669Z" transform="translate(-10.633 -4.608)"/>
      <path id="Path_980119" data-name="Path 980119" d="M25,5h7.747V6.291H25Z" transform="translate(-8.506 -1.418)"/>
      <path id="Path_980120" data-name="Path 980120" d="M39,5h1.291V6.291H39Z" transform="translate(-13.468 -1.418)"/>
      <path id="Path_980121" data-name="Path 980121" d="M25,9h7.747v1.291H25Z" transform="translate(-8.506 -2.835)"/>
      <path id="Path_980122" data-name="Path 980122" d="M39,9h1.291v1.291H39Z" transform="translate(-13.468 -2.835)"/>
    </g>
  </g>
</svg>
