<svg xmlns="http://www.w3.org/2000/svg" xmlns:xlink="http://www.w3.org/1999/xlink" width="83" height="83" viewBox="0 0 83 83">
  <defs>
    <filter id="Fondo" x="0" y="0" width="83" height="83" filterUnits="userSpaceOnUse">
      <feOffset dy="3" input="SourceAlpha"/>
      <feGaussianBlur stdDeviation="3" result="blur"/>
      <feFlood flood-opacity="0.161"/>
      <feComposite operator="in" in2="blur"/>
      <feComposite in="SourceGraphic"/>
    </filter>
  </defs>
  <g id="Group_1143799" data-name="Group 1143799" transform="translate(-1033 -393)">
    <g transform="matrix(1, 0, 0, 1, 1033, 393)" filter="url(#Fondo)">
      <g id="Fondo-2" data-name="Fondo" transform="translate(9 6)" fill="#e8f5f9" stroke="#145a74" stroke-width="3">
        <circle cx="32.5" cy="32.5" r="32.5" stroke="none"/>
        <circle cx="32.5" cy="32.5" r="31" fill="none"/>
      </g>
    </g>
    <g id="Group_1143798" data-name="Group 1143798" transform="translate(1051.327 409.327)">
      <g id="Group_1143796" data-name="Group 1143796" transform="translate(0.664 0.664)">
        <path id="Path_980076" data-name="Path 980076" d="M406.338,87.727l-3.158,3.067s2.4,1.594,2.453,1.594,2.077-1.365,2.087-1.424S406.338,87.727,406.338,87.727Z" transform="translate(-368.136 -80.622)" fill="#01d0fb"/>
        <path id="Path_980077" data-name="Path 980077" d="M16.467,41.338A17.608,17.608,0,0,1,40.563,15.8a.368.368,0,0,1,.03.546l-.241.241a.367.367,0,0,0,.177.617l4.955,1.143a.734.734,0,0,0,.88-.88L45.22,12.516a.367.367,0,0,0-.617-.177l-.363.363a.368.368,0,0,1-.5.018A22.008,22.008,0,0,0,13.308,44.4Z" transform="translate(-7.5 -7.5)" fill="#9be69d"/>
        <g id="Group_1143795" data-name="Group 1143795" transform="translate(7.343 8.07)">
          <g id="Group_1143794" data-name="Group 1143794" transform="translate(1.446)">
            <path id="Path_980078" data-name="Path 980078" d="M155.525,127.566a13.23,13.23,0,0,0,4.048-5.783l-1.888-12.324a13.227,13.227,0,0,0-6.817-4.743l-8.575.37a13.232,13.232,0,0,0-5.015,3.491h0l-.723,16.727a13.263,13.263,0,0,0,4.6,3.861Z" transform="translate(-133.915 -104.177)" fill="#01d0fb"/>
            <path id="Path_980079" data-name="Path 980079" d="M287.072,117.383a13.182,13.182,0,0,1-5.131,10.449l2.381-.265a13.23,13.23,0,0,0,4.048-5.783l-1.888-12.324a13.226,13.226,0,0,0-6.817-4.743l-1.8.077a13.21,13.21,0,0,1,9.2,12.587Z" transform="translate(-262.712 -104.177)" fill="#01c0fa"/>
            <path id="Path_980080" data-name="Path 980080" d="M112.9,161.519V161.1a1.345,1.345,0,0,1,1.345-1.345,3.521,3.521,0,0,0,3.15-1.947l.416-.831a3.521,3.521,0,0,0,.372-1.575v-2.349a2.1,2.1,0,0,0-2.1-2.1H115.3a2.1,2.1,0,0,1-1.994-1.437,1.761,1.761,0,0,0-1.67-1.2h-1.53a13.2,13.2,0,0,0-.723,16.727h0A3.521,3.521,0,0,0,112.9,161.519Z" transform="translate(-106.742 -143.912)" fill="#9be69d"/>
            <path id="Path_980081" data-name="Path 980081" d="M295.327,167.644l-.746-6.874-3.046-2.515H289.6a3.521,3.521,0,0,0-3.15,1.947l-.416.831a3.522,3.522,0,0,0-.372,1.575v1.6a1.761,1.761,0,0,0,.973,1.575l1.8.9a3.521,3.521,0,0,0,1.575.372h.929a.88.88,0,0,1,.88.88v.88a1.76,1.76,0,0,0,1.6,1.753Z" transform="translate(-269.816 -152.973)" fill="#9be69d"/>
            <path id="Path_980082" data-name="Path 980082" d="M354.612,166.178a13.184,13.184,0,0,1-.749,4.394c.052,0,.1.008.158.008h1.889a13.222,13.222,0,0,0-1.888-12.325h-2.051A13.145,13.145,0,0,1,354.612,166.178Z" transform="translate(-330.252 -152.973)" fill="#6fd7a3"/>
            <path id="Path_980083" data-name="Path 980083" d="M208.367,99.295,206,99.046h-.846a13.137,13.137,0,0,0-3.809.871l.332.665a3.521,3.521,0,0,0,3.15,1.947h2.163a1.761,1.761,0,0,0,1.465-.784l1.059-1.589Z" transform="translate(-192.962 -99.008)" fill="#9be69d"/>
            <path id="Path_980084" data-name="Path 980084" d="M244.267,98.654a13.126,13.126,0,0,1,4.368,1.109l.406-.608h0a13.206,13.206,0,0,0-3.748-.54Q244.775,98.615,244.267,98.654Z" transform="translate(-232.087 -98.615)" fill="#6fd7a3"/>
            <path id="Path_980085" data-name="Path 980085" d="M194.082,333.35l2.43-.29,4.607-2.038.927-1.8-.367-.514a3.521,3.521,0,0,0-2.865-1.475h-2.159a4.093,4.093,0,0,0-3.406,1.823,1.837,1.837,0,0,1-1.529.818,3.52,3.52,0,0,0-3.22,2.1,13.127,13.127,0,0,0,4.955,1.382Z" transform="translate(-181.258 -306.986)" fill="#9be69d"/>
            <path id="Path_980086" data-name="Path 980086" d="M252.875,349.688a13.169,13.169,0,0,1-8.608,4.134q.507.039,1.025.039a13.152,13.152,0,0,0,8.4-3.014l.008-.006h0Z" transform="translate(-232.087 -327.451)" fill="#6fd7a3"/>
          </g>
          <path id="Path_980087" data-name="Path 980087" d="M103.663,253.677a14.654,14.654,0,0,0-11.806-5.957q-.377,0-.749.019a.736.736,0,0,0-.7.774,14.674,14.674,0,0,0,14.654,13.879c.164,0,.328,0,.491-.009Z" transform="translate(-90.411 -234.514)" fill="#6fd7a3"/>
          <path id="Path_980088" data-name="Path 980088" d="M217.951,303.2a14.814,14.814,0,0,0,1.865.118c.164,0,.328,0,.491-.009l-1.894-8.706a14.758,14.758,0,0,0-1.762-1.98,16.738,16.738,0,0,0,1.3,10.577Z" transform="translate(-205.161 -275.444)" fill="#3ec3a4"/>
          <path id="Path_980089" data-name="Path 980089" d="M239.312,179.869a14.6,14.6,0,0,0,1.958,7.327,14.676,14.676,0,0,0,12.454-21.582.735.735,0,0,0-.694-.386A14.674,14.674,0,0,0,239.312,179.869Z" transform="translate(-226.124 -159.327)" fill="#6fd7a3"/>
          <path id="Path_980090" data-name="Path 980090" d="M272.783,165.615a.735.735,0,0,0-.694-.386,14.7,14.7,0,0,0-1.511.177.73.73,0,0,1,.17.209,14.676,14.676,0,0,1-10.526,21.39c.036.064.07.128.106.191a14.676,14.676,0,0,0,12.454-21.582Z" transform="translate(-245.183 -159.328)" fill="#3ec3a4"/>
        </g>
        <path id="Path_980091" data-name="Path 980091" d="M98.466,87.727l.661,2.866a.734.734,0,0,1-.88.88l-2.94-.678a17.607,17.607,0,0,1-24.1,25.535.368.368,0,0,1-.03-.546l.242-.242a.367.367,0,0,0-.177-.617l-4.955-1.143a.734.734,0,0,0-.88.88l1.143,4.955a.367.367,0,0,0,.617.177l.363-.363a.368.368,0,0,1,.5-.018A22.008,22.008,0,0,0,98.466,87.727Z" transform="translate(-60.264 -80.622)" fill="#01d0fb"/>
      </g>
      <g id="Group_1143797" data-name="Group 1143797" transform="translate(0 0)">
        <path id="Path_980092" data-name="Path 980092" d="M98.267,120.321c.151,0,.312,0,.5-.009h.009a15.34,15.34,0,0,0,13.015-22.56,1.4,1.4,0,0,0-1.322-.735c-.268.017-.535.042-.8.073a13.877,13.877,0,0,0-16.434-5.033.662.662,0,0,0-.1.038l-.006,0a13.876,13.876,0,0,0-7.065,6.275.664.664,0,1,0,1.167.634,12.581,12.581,0,0,1,1.486-2.162h1.23a1.1,1.1,0,0,1,1.04.75,2.762,2.762,0,0,0,2.624,1.891H94.4a1.439,1.439,0,0,1,1.438,1.438v2.349a2.872,2.872,0,0,1-.3,1.278l-.416.831a2.843,2.843,0,0,1-1.673,1.439,15.223,15.223,0,0,0-1.372-.8,15.38,15.38,0,0,0-6.336-1.681,12.548,12.548,0,0,1,.377-2.487.664.664,0,0,0-1.287-.331,13.891,13.891,0,0,0-.42,2.817l-.135,0a1.4,1.4,0,0,0-1.326,1.473,15.329,15.329,0,0,0,15.314,14.508Zm12.291-21.978h0a.07.07,0,0,1,.061.037,14.017,14.017,0,0,1-9.6,20.344,20.521,20.521,0,0,0,2.318-2.506,25.516,25.516,0,0,0,5.124-13.367.664.664,0,1,0-1.322-.133,24.219,24.219,0,0,1-4.806,12.627,17.942,17.942,0,0,1-3.348,3.338,14.01,14.01,0,0,1,11.568-20.339Zm-8.825,2.131a2.832,2.832,0,0,1,.142-.338l.416-.831a2.842,2.842,0,0,1,2.556-1.579h1.907a15.254,15.254,0,0,0-5.02,2.749Zm-.789-7.744L100,94.147a1.094,1.094,0,0,1-.912.488H96.922a2.841,2.841,0,0,1-2.551-1.572,12.568,12.568,0,0,1,6.573-.334Zm-4.63,13.246.416-.831a4.207,4.207,0,0,0,.442-1.872v-2.349A2.769,2.769,0,0,0,94.4,98.157h-.785a1.436,1.436,0,0,1-1.364-.983,2.42,2.42,0,0,0-2.217-1.655,12.545,12.545,0,0,1,3.087-1.974l.052.1a4.163,4.163,0,0,0,3.744,2.314h2.164a2.42,2.42,0,0,0,2.018-1.08l1.188-1.782a12.484,12.484,0,0,1,5.117,3.294h-2.563A4.163,4.163,0,0,0,101.1,98.71l-.416.831a4.207,4.207,0,0,0-.442,1.872v.461a15.266,15.266,0,0,0-3.822,7.484,15.535,15.535,0,0,0-1.74-1.642,4.171,4.171,0,0,0,1.63-1.741ZM84.3,105.689a.068.068,0,0,1,.048-.023c.237-.012.478-.018.715-.018a14.075,14.075,0,0,1,11.12,5.492q-.045.586-.046,1.18a15.371,15.371,0,0,0,.883,5.13c-2.724-1.588-6.76-4.468-8.412-8.326a.664.664,0,1,0-1.221.523,17.049,17.049,0,0,0,5.194,6.382,31.236,31.236,0,0,0,4.349,2.9A14,14,0,0,1,84.28,105.742.07.07,0,0,1,84.3,105.689Z" transform="translate(-75.604 -83.044)"/>
        <path id="Path_980093" data-name="Path 980093" d="M39.475,7.453l-.444-1.922a1.031,1.031,0,0,0-1.734-.5l-.17.17A22.5,22.5,0,0,0,22.727,0h-.053A22.579,22.579,0,0,0,9.747,4.045.664.664,0,1,0,10.5,5.137,21.256,21.256,0,0,1,22.673,1.328h.05A21.319,21.319,0,0,1,36.475,6.391a1.038,1.038,0,0,0,1.383-.039l1.023,4.433a.069.069,0,0,1-.083.083L34.346,9.841a1.032,1.032,0,0,0-.2-1.39A18.272,18.272,0,0,0,4.4,22.673,18.214,18.214,0,0,0,7.895,33.419L6.84,33.176a1.4,1.4,0,0,0-1.676,1.676l.01.044A21.348,21.348,0,0,1,7.85,7.315q.148-.143.3-.283a.664.664,0,1,0-.9-.974q-.16.149-.318.3A22.669,22.669,0,0,0,5.863,37.885l.444,1.923a1.031,1.031,0,0,0,1.734.5l.17-.17a22.5,22.5,0,0,0,14.405,5.211h.056a22.67,22.67,0,0,0,16.8-37.893ZM5.73,22.673A16.945,16.945,0,0,1,33.052,9.279l-.006.006a1.031,1.031,0,0,0,.5,1.734l1.809.417A16.942,16.942,0,0,1,22.673,39.616,16.715,16.715,0,0,1,12.286,36.06l.007-.007a1.031,1.031,0,0,0-.5-1.734L9.987,33.9A16.882,16.882,0,0,1,5.73,22.673ZM37.5,38.031a21.222,21.222,0,0,1-14.823,5.986h-.053A21.318,21.318,0,0,1,8.863,38.948a1.038,1.038,0,0,0-1.383.038L6.458,34.554a.069.069,0,0,1,.083-.083L10.993,35.5a1.032,1.032,0,0,0,.2,1.39A18.272,18.272,0,0,0,40.944,22.673a18.213,18.213,0,0,0-3.5-10.753l1.052.243a1.4,1.4,0,0,0,1.676-1.676l-.011-.049A21.348,21.348,0,0,1,37.5,38.031Z" transform="translate(0 0)"/>
      </g>
    </g>
  </g>
</svg>
