<svg xmlns="http://www.w3.org/2000/svg" xmlns:xlink="http://www.w3.org/1999/xlink" width="83" height="83" viewBox="0 0 83 83">
  <defs>
    <filter id="Fondo" x="0" y="0" width="83" height="83" filterUnits="userSpaceOnUse">
      <feOffset dy="3" input="SourceAlpha"/>
      <feGaussianBlur stdDeviation="3" result="blur"/>
      <feFlood flood-opacity="0.161"/>
      <feComposite operator="in" in2="blur"/>
      <feComposite in="SourceGraphic"/>
    </filter>
  </defs>
  <g id="Group_1143803" data-name="Group 1143803" transform="translate(-1033 -1284)">
    <g transform="matrix(1, 0, 0, 1, 1033, 1284)" filter="url(#Fondo)">
      <g id="Fondo-2" data-name="Fondo" transform="translate(9 6)" fill="#e8f5f8" stroke="#145a74" stroke-width="3">
        <circle cx="32.5" cy="32.5" r="32.5" stroke="none"/>
        <circle cx="32.5" cy="32.5" r="31" fill="none"/>
      </g>
    </g>
    <g id="Group_1143802" data-name="Group 1143802" transform="translate(1038.329 1284.329)">
      <path id="Path_980123" data-name="Path 980123" d="M79.7,39.833a15.848,15.848,0,1,1-31.7,0q0-.7.059-1.378A15.848,15.848,0,0,1,79.7,39.833Z" transform="translate(-29.244 -7.296)" fill="#9ce6ed"/>
      <path id="Path_980124" data-name="Path 980124" d="M240.537,82.16a15.837,15.837,0,0,1-7.529,13.491l-3.5-3.845V86.294h-2.756L224,82.16l2.756-2.067H230.2l2.067-2.756-1.378-3.445L235.2,70.3A15.811,15.811,0,0,1,240.537,82.16Z" transform="translate(-190.085 -49.623)" fill="#02c26a"/>
      <rect id="Rectangle_405140" data-name="Rectangle 405140" width="6" height="7" transform="translate(39.671 49.671)" fill="#4367e0"/>
      <rect id="Rectangle_405141" data-name="Rectangle 405141" width="6" height="13" transform="translate(45.671 43.671)" fill="#4976f2"/>
      <rect id="Rectangle_405142" data-name="Rectangle 405142" width="5" height="20" transform="translate(51.671 36.671)" fill="#548aff"/>
      <path id="Path_980125" data-name="Path 980125" d="M109.419,25.286l-4.906,4.906v4.134l-4.134,2.756-2.756-2.756H94.178V31.57L90.99,29.657a15.861,15.861,0,0,1,18.429-4.371Z" transform="translate(-68.531 -7.302)" fill="#02c26a"/>
      <path id="Path_980126" data-name="Path 980126" d="M61.781,198.2l-2.756,2.067v8.21A15.854,15.854,0,0,1,48,193.378q0-.7.059-1.378h4.075l2.067,2.756h5.512Z" transform="translate(-29.244 -160.841)" fill="#02c26a"/>
      <path id="Path_980127" data-name="Path 980127" d="M30.89,257.378c0-.761-1.542-1.378-3.445-1.378S24,256.617,24,257.378V274.6c0,.761,1.542,1.378,3.445,1.378s3.445-.617,3.445-1.378Z" transform="translate(-7.311 -219.329)" fill="#ffc431"/>
      <ellipse id="Ellipse_11555" data-name="Ellipse 11555" cx="3.5" cy="1" rx="3.5" ry="1" transform="translate(16.671 36.671)" fill="#ffd873"/>
      <path id="Path_980128" data-name="Path 980128" d="M110.89,337.378c0-.761-1.542-1.378-3.445-1.378s-3.445.617-3.445,1.378v10.336c0,.761,1.542,1.378,3.445,1.378s3.445-.617,3.445-1.378Z" transform="translate(-80.421 -292.439)" fill="#ffc431"/>
      <ellipse id="Ellipse_11556" data-name="Ellipse 11556" cx="3.5" cy="1" rx="3.5" ry="1" transform="translate(23.671 43.671)" fill="#ffd873"/>
      <path id="Path_980129" data-name="Path 980129" d="M190.89,377.378c0-.761-1.542-1.378-3.445-1.378s-3.445.617-3.445,1.378v6.89c0,.761,1.542,1.378,3.445,1.378s3.445-.617,3.445-1.378Z" transform="translate(-153.53 -328.993)" fill="#ffc431"/>
      <ellipse id="Ellipse_11557" data-name="Ellipse 11557" cx="3.5" cy="1.5" rx="3.5" ry="1.5" transform="translate(30.671 46.671)" fill="#ffd873"/>
      <path id="Path_980130" data-name="Path 980130" d="M56.653,248H51.141a.689.689,0,0,0-.689.689v6.2H45.629a.689.689,0,0,0-.689.689V260.4H40.116a.689.689,0,0,0-.689.689v6.2H38.049V260.4c0-.387-.187-1.112-1.442-1.614a8.226,8.226,0,0,0-5.384,0l-.064.027v-1.858c0-.387-.187-1.112-1.442-1.614a8.226,8.226,0,0,0-5.384,0l-.064.027v-5.3c0-.387-.187-1.112-1.442-1.614A7.476,7.476,0,0,0,20.134,248a7.476,7.476,0,0,0-2.692.453c-1.255.5-1.442,1.227-1.442,1.614v17.226c0,.387.187,1.112,1.442,1.614a7.477,7.477,0,0,0,2.692.453,7.477,7.477,0,0,0,2.692-.453,3.32,3.32,0,0,0,.753-.408,3.32,3.32,0,0,0,.753.408,8.226,8.226,0,0,0,5.384,0,3.318,3.318,0,0,0,.753-.408,3.32,3.32,0,0,0,.753.408,8.226,8.226,0,0,0,5.384,0,3.75,3.75,0,0,0,.49-.236H56.653a.689.689,0,0,0,.689-.689V248.689A.689.689,0,0,0,56.653,248ZM17.378,261.99l.064.027a7.476,7.476,0,0,0,2.692.453,7.477,7.477,0,0,0,2.692-.453l.064-.027v1.832a3.994,3.994,0,0,1-2.756.715,3.994,3.994,0,0,1-2.756-.715Zm0-3.445.064.027a7.476,7.476,0,0,0,2.692.453,7.477,7.477,0,0,0,2.692-.453l.064-.027v1.832a3.994,3.994,0,0,1-2.756.715,3.994,3.994,0,0,1-2.756-.715Zm0-3.445.064.027a7.475,7.475,0,0,0,2.692.453,7.477,7.477,0,0,0,2.692-.453l.064-.027v1.832a3.994,3.994,0,0,1-2.756.715,3.994,3.994,0,0,1-2.756-.715Zm0-3.445.064.027a7.476,7.476,0,0,0,2.692.453,7.477,7.477,0,0,0,2.692-.453l.064-.027v1.832a3.994,3.994,0,0,1-2.756.715,3.994,3.994,0,0,1-2.756-.715Zm9.647,9.437a3.994,3.994,0,0,1-2.756-.715v-1.832l.064.027a8.226,8.226,0,0,0,5.384,0l.064-.027v1.832A3.994,3.994,0,0,1,27.025,261.092Zm-2.756.9.064.027a8.226,8.226,0,0,0,5.384,0l.064-.027v1.832a3.994,3.994,0,0,1-2.756.715,3.994,3.994,0,0,1-2.756-.715Zm6.89,0,.064.027a8.226,8.226,0,0,0,5.384,0l.064-.027v1.832a3.994,3.994,0,0,1-2.756.715,3.994,3.994,0,0,1-2.756-.715Zm2.756-2.277a4.189,4.189,0,0,1,2.738.69,4.215,4.215,0,0,1-2.738.688,4.215,4.215,0,0,1-2.738-.688A4.189,4.189,0,0,1,33.915,259.714Zm-6.89-3.445a4.189,4.189,0,0,1,2.738.69,4.215,4.215,0,0,1-2.738.688,4.207,4.207,0,0,1-2.739-.689A4.207,4.207,0,0,1,27.025,256.268Zm-6.89-6.89a4.189,4.189,0,0,1,2.738.69,4.215,4.215,0,0,1-2.738.688,4.216,4.216,0,0,1-2.738-.688A4.189,4.189,0,0,1,20.134,249.378Zm0,18.6a4.006,4.006,0,0,1-2.756-.714v-1.833l.064.027a7.476,7.476,0,0,0,2.692.453,7.477,7.477,0,0,0,2.692-.453l.064-.027v1.833A4.006,4.006,0,0,1,20.134,267.982Zm6.89,0a3.994,3.994,0,0,1-2.756-.715v-1.832l.064.027a8.226,8.226,0,0,0,5.384,0l.064-.027v1.833A4.006,4.006,0,0,1,27.025,267.982Zm6.89,0a4.006,4.006,0,0,1-2.756-.714v-1.833l.064.027a8.226,8.226,0,0,0,5.384,0l.064-.027v1.833A4.006,4.006,0,0,1,33.915,267.982Zm6.89-6.2H44.94v5.512H40.805Zm5.512-5.512h4.134v11.025H46.318Zm5.512,11.025V249.378h4.134v17.915Z" transform="translate(0 -212.018)"/>
      <rect id="Rectangle_405143" data-name="Rectangle 405143" width="1" height="1" transform="translate(34.671 43.671)"/>
      <path id="Path_980131" data-name="Path 980131" d="M256,175.159v1.378h3.445a.689.689,0,0,0,.487-.2l13.983-13.983v1.093h1.378v-2.756A.689.689,0,0,0,274.6,160h-2.756v1.378h1.093L259.16,175.159Z" transform="translate(-219.329 -131.597)"/>
      <path id="Path_980132" data-name="Path 980132" d="M67.745,20.377A16.537,16.537,0,0,0,40,32.537a16.75,16.75,0,0,0,.139,2.156l1.367-.178a15.368,15.368,0,0,1-.128-1.978c0-.231.006-.461.016-.689h3.084l1.86,2.481a.689.689,0,0,0,.551.276h5.122l1.547,2.578L51.3,38.876a.689.689,0,0,0-.276.551v2.067H52.4V39.772l2.481-1.86a.689.689,0,0,0,.177-.906L52.994,33.56a.689.689,0,0,0-.591-.335H47.235l-1.86-2.481a.689.689,0,0,0-.551-.276h-3.3a15.087,15.087,0,0,1,3.038-7.211l2.333,1.4v2.366a.689.689,0,0,0,.689.689h3.16l2.554,2.554a.689.689,0,0,0,.869.086L58.3,27.6a.689.689,0,0,0,.307-.573V23.176l4.367-4.367a15.124,15.124,0,0,1,3,1.866L62.3,23.739a.689.689,0,0,0-.2.785l1.234,3.086L61.7,29.781H58.6a.689.689,0,0,0-.413.138l-2.756,2.067a.689.689,0,0,0-.16.933l2.756,4.134a.689.689,0,0,0,.573.307h2.067v4.134h1.378V36.671a.689.689,0,0,0-.689-.689H58.973L56.783,32.7l2.051-1.538h3.215a.689.689,0,0,0,.551-.276l2.067-2.756a.689.689,0,0,0,.089-.669l-1.192-2.98,3.461-2.884a15.1,15.1,0,0,1,4.614,9.625l1.373-.118A16.483,16.483,0,0,0,67.745,20.377ZM57.428,22.4a.689.689,0,0,0-.2.487v3.765l-3.357,2.238-2.357-2.357a.689.689,0,0,0-.487-.2H48.268V24.268a.689.689,0,0,0-.335-.591L45.464,22.2a15.152,15.152,0,0,1,16.125-3.954Z" transform="translate(-21.933)"/>
    </g>
  </g>
</svg>
