<svg xmlns="http://www.w3.org/2000/svg" xmlns:xlink="http://www.w3.org/1999/xlink" width="108" height="108" viewBox="0 0 108 108">
  <defs>
    <filter id="Path_904820" x="0" y="0" width="108" height="108" filterUnits="userSpaceOnUse">
      <feOffset dy="3" input="SourceAlpha"/>
      <feGaussianBlur stdDeviation="3" result="blur"/>
      <feFlood flood-opacity="0.161"/>
      <feComposite operator="in" in2="blur"/>
      <feComposite in="SourceGraphic"/>
    </filter>
  </defs>
  <g id="Group_1143920" data-name="Group 1143920" transform="translate(-201 -3086)">
    <g id="Group_1143896" data-name="Group 1143896" transform="translate(0 -471)">
      <g transform="matrix(1, 0, 0, 1, 201, 3557)" filter="url(#Path_904820)">
        <g id="Path_904820-2" data-name="Path 904820" transform="translate(9 6)" fill="#ecf4fa">
          <path d="M 45 88.5 C 39.12687683105469 88.5 33.43022537231445 87.35007476806641 28.06830024719238 85.08217620849609 C 22.88852500915527 82.89131164550781 18.23629951477051 79.75458526611328 14.2408504486084 75.75914764404297 C 10.24541282653809 71.76370239257812 7.108687400817871 67.11147308349609 4.917825222015381 61.93170166015625 C 2.649924993515015 56.56977462768555 1.5 50.87312316894531 1.5 45 C 1.5 39.12687683105469 2.649924993515015 33.43022537231445 4.917825222015381 28.06830024719238 C 7.108687400817871 22.88852500915527 10.24541282653809 18.23629951477051 14.2408504486084 14.2408504486084 C 18.23629951477051 10.24541282653809 22.88852500915527 7.108687400817871 28.06830024719238 4.917825222015381 C 33.43022537231445 2.649924993515015 39.12687683105469 1.5 45 1.5 C 50.87312316894531 1.5 56.56977462768555 2.649924993515015 61.93170166015625 4.917825222015381 C 67.11147308349609 7.108687400817871 71.76370239257812 10.24541282653809 75.75914764404297 14.2408504486084 C 79.75458526611328 18.23629951477051 82.89131164550781 22.88852500915527 85.08217620849609 28.06830024719238 C 87.35007476806641 33.43022537231445 88.5 39.12687683105469 88.5 45 C 88.5 50.87312316894531 87.35007476806641 56.56977462768555 85.08217620849609 61.93170166015625 C 82.89131164550781 67.11147308349609 79.75458526611328 71.76370239257812 75.75914764404297 75.75914764404297 C 71.76370239257812 79.75458526611328 67.11147308349609 82.89131164550781 61.93170166015625 85.08217620849609 C 56.56977462768555 87.35007476806641 50.87312316894531 88.5 45 88.5 Z" stroke="none"/>
          <path d="M 45 3 C 39.32871246337891 3 33.82865524291992 4.110054016113281 28.65262985229492 6.299339294433594 C 23.65165710449219 8.414573669433594 19.15968322753906 11.44334411621094 15.301513671875 15.301513671875 C 11.44334411621094 19.15968322753906 8.414573669433594 23.65165710449219 6.299339294433594 28.65262985229492 C 4.110054016113281 33.82865524291992 3 39.32871246337891 3 45 C 3 50.67128753662109 4.110054016113281 56.17134475708008 6.299339294433594 61.34737396240234 C 8.414573669433594 66.34834289550781 11.44334411621094 70.84031677246094 15.301513671875 74.698486328125 C 19.15968322753906 78.55665588378906 23.65165710449219 81.58542633056641 28.65262985229492 83.70066070556641 C 33.82865524291992 85.88994598388672 39.32871246337891 87 45 87 C 50.67128753662109 87 56.17134475708008 85.88994598388672 61.34737396240234 83.70066070556641 C 66.34834289550781 81.58542633056641 70.84031677246094 78.55665588378906 74.698486328125 74.698486328125 C 78.55665588378906 70.84031677246094 81.58542633056641 66.34834289550781 83.70066070556641 61.34737396240234 C 85.88994598388672 56.17134475708008 87 50.67128753662109 87 45 C 87 39.32871246337891 85.88994598388672 33.82865524291992 83.70066070556641 28.65262985229492 C 81.58542633056641 23.65165710449219 78.55665588378906 19.15968322753906 74.698486328125 15.301513671875 C 70.84031677246094 11.44334411621094 66.34834289550781 8.414573669433594 61.34737396240234 6.299339294433594 C 56.17134475708008 4.110054016113281 50.67128753662109 3 45 3 M 45 0 C 69.85281372070312 0 90 20.14718627929688 90 45 C 90 69.85281372070312 69.85281372070312 90 45 90 C 20.14718627929688 90 0 69.85281372070312 0 45 C 0 20.14718627929688 20.14718627929688 0 45 0 Z" stroke="none" fill="#2a5673"/>
        </g>
      </g>
      <g id="Group_1143895" data-name="Group 1143895" transform="translate(224.999 3579)">
        <g id="Group_1143893" data-name="Group 1143893" transform="translate(0.879 0.879)">
          <circle id="Ellipse_11553" data-name="Ellipse 11553" cx="18.174" cy="18.174" r="18.174" transform="translate(10.947 10.947)" fill="#f5f8f9"/>
          <ellipse id="Ellipse_11554" data-name="Ellipse 11554" cx="11.719" cy="6.211" rx="11.719" ry="6.211" transform="translate(17.403 40.079)" fill="#d2af8c"/>
          <g id="Group_1143889" data-name="Group 1143889">
            <path id="Path_980270" data-name="Path 980270" d="M65.919,29.887a25.62,25.62,0,0,0-2.531-6.1,1.176,1.176,0,0,1,.182-1.421L64.933,21a1.172,1.172,0,0,0,0-1.657L58.3,12.715a1.172,1.172,0,0,0-1.657,0l-1.363,1.363a1.177,1.177,0,0,1-1.421.182,25.623,25.623,0,0,0-6.1-2.531,1.176,1.176,0,0,1-.875-1.133V8.672A1.172,1.172,0,0,0,45.714,7.5H36.338a1.172,1.172,0,0,0-1.172,1.172V10.6a1.176,1.176,0,0,1-.875,1.133,25.619,25.619,0,0,0-6.1,2.531,1.176,1.176,0,0,1-1.421-.182l-1.363-1.362a1.172,1.172,0,0,0-1.657,0l-6.629,6.629a1.172,1.172,0,0,0,0,1.657l1.363,1.363a1.177,1.177,0,0,1,.182,1.421q-.418.727-.79,1.484c-.721,1.466-.666,3.2-1.1,4.807a1.176,1.176,0,0,1-1.133.875l-1.98.562a1.172,1.172,0,0,0-1.172,1.172l.479,7.567a1.172,1.172,0,0,0,1.172,1.172h1.924A1.176,1.176,0,0,1,17.2,42.3a26.24,26.24,0,0,0,2.2,6.289,1.176,1.176,0,0,1-.182,1.421l-1.064,1.772a1.172,1.172,0,0,0,0,1.657l6.33,6.219a1.172,1.172,0,0,0,1.657,0L27.5,58.295a1.177,1.177,0,0,1,1.421-.182A25.137,25.137,0,0,0,34.8,61.024a1.176,1.176,0,0,1,.875,1.133v1.924a1.172,1.172,0,0,0,1.172,1.172l8.216-.319a1.172,1.172,0,0,0,1.172-1.172V61.838a1.176,1.176,0,0,1,.875-1.133c1.757-.474,4.092-.323,5.679-1.138q.545-.28,1.076-.583a1.176,1.176,0,0,1,1.421.182l1.363,1.363a1.172,1.172,0,0,0,1.657,0L64.933,53.9a1.172,1.172,0,0,0,0-1.657L63.57,50.879a1.177,1.177,0,0,1-.182-1.421,25.623,25.623,0,0,0,2.531-6.1,1.176,1.176,0,0,1,1.133-.875h1.924a1.172,1.172,0,0,0,1.172-1.172V31.934a1.172,1.172,0,0,0-1.172-1.172H67.052a1.177,1.177,0,0,1-1.133-.875ZM41.026,53.438A16.817,16.817,0,1,1,57.843,36.622,16.817,16.817,0,0,1,41.026,53.438Z" transform="translate(-11.904 -7.5)" fill="#878382"/>
            <g id="Group_1143888" data-name="Group 1143888" transform="translate(0 17.769)">
              <path id="Path_980271" data-name="Path 980271" d="M42.95,193.916a29.9,29.9,0,0,1-29.48-34.791,25.583,25.583,0,0,0-1.741,4.618,1.176,1.176,0,0,1-1.133.875H8.672A1.172,1.172,0,0,0,7.5,165.79v9.375a1.172,1.172,0,0,0,1.172,1.172H10.6a1.176,1.176,0,0,1,1.133.875,25.619,25.619,0,0,0,2.531,6.1,1.176,1.176,0,0,1-.182,1.421L12.715,186.1a1.172,1.172,0,0,0,0,1.657l6.629,6.629a1.172,1.172,0,0,0,1.657,0l1.363-1.363a1.177,1.177,0,0,1,1.421-.182,25.623,25.623,0,0,0,6.1,2.531,1.176,1.176,0,0,1,.875,1.133v1.924a1.172,1.172,0,0,0,1.172,1.172h9.375a1.172,1.172,0,0,0,1.172-1.172V196.5a1.176,1.176,0,0,1,.875-1.133,25.582,25.582,0,0,0,5.026-1.947A30.057,30.057,0,0,1,42.95,193.916Z" transform="translate(-7.5 -159.125)" fill="#7a7473"/>
            </g>
          </g>
          <g id="Group_1143892" data-name="Group 1143892" transform="translate(16.579 6.071)">
            <g id="Group_1143890" data-name="Group 1143890" transform="translate(3.885)">
              <path id="Path_980272" data-name="Path 980272" d="M190.921,59.353l1.031.778a7.635,7.635,0,0,0,3.539,1.466l1.279.179a.234.234,0,0,1,.2.2l.179,1.279a7.634,7.634,0,0,0,1.466,3.539l.778,1.031a.234.234,0,0,1,0,.282l-.778,1.031a7.635,7.635,0,0,0-1.466,3.539l-.179,1.279a.234.234,0,0,1-.2.2l-1.279.179a7.634,7.634,0,0,0-3.539,1.466l-1.031.778a.234.234,0,0,1-.282,0l-1.031-.778a7.635,7.635,0,0,0-3.539-1.466l-1.279-.179a.234.234,0,0,1-.2-.2l-.179-1.279a7.634,7.634,0,0,0-1.466-3.539l-.778-1.031a.234.234,0,0,1,0-.282l.778-1.031a7.635,7.635,0,0,0,1.466-3.539l.179-1.279a.234.234,0,0,1,.2-.2l1.279-.179a7.634,7.634,0,0,0,3.539-1.466l1.031-.778A.234.234,0,0,1,190.921,59.353Z" transform="translate(-182.12 -59.306)" fill="#fee45a"/>
              <circle id="Ellipse_11555" data-name="Ellipse 11555" cx="3.809" cy="3.809" r="3.809" transform="translate(4.852 4.851)" fill="#ffd15b"/>
            </g>
            <g id="Group_1143891" data-name="Group 1143891" transform="translate(0 18.832)">
              <path id="Path_980273" data-name="Path 980273" d="M174.054,220.576a.349.349,0,0,0-.288-.35c-1.208-.219-5.952-.861-9.014,1.866-2.532,2.254-3.1,5.753-3.216,7.556a.023.023,0,0,1-.047,0c-.119-1.8-.687-5.3-3.219-7.556-3.063-2.727-7.806-2.085-9.014-1.866a.349.349,0,0,0-.288.35c.02,1.2.3,5.8,3.354,8.518,2.556,2.276,6.224,2.156,8.058,1.915a2.476,2.476,0,0,0,1.133-.436,2.476,2.476,0,0,0,1.133.436c1.832.24,5.5.361,8.054-1.916C173.754,226.375,174.035,221.775,174.054,220.576Z" transform="translate(-148.969 -220)" fill="#b4e555"/>
            </g>
          </g>
        </g>
        <g id="Group_1143894" data-name="Group 1143894" transform="translate(0 0)">
          <path id="Path_980274" data-name="Path 980274" d="M112.954,87.911a15.889,15.889,0,0,1-5.679-8.545.879.879,0,1,0-1.7.448,17.7,17.7,0,1,0,26.447-19.558l-.8-1.059a6.771,6.771,0,0,1-1.3-3.132l-.2-1.454a.879.879,0,0,0-.749-.749l-1.454-.2a6.771,6.771,0,0,1-3.132-1.3l-1.172-.884a.879.879,0,0,0-1.059,0l-1.172.884a6.771,6.771,0,0,1-3.132,1.3l-1.454.2a.879.879,0,0,0-.749.749l-.2,1.454a6.772,6.772,0,0,1-1.3,3.132l-.8,1.059a17.678,17.678,0,0,0-8.359,15.282.879.879,0,0,0,.879.867h.012a.879.879,0,0,0,.867-.891,15.882,15.882,0,0,1,7.011-13.429l.389.516a6.77,6.77,0,0,1,1.3,3.132l.2,1.454a.879.879,0,0,0,.749.749l1.454.2a6.771,6.771,0,0,1,3.132,1.3l1.172.884a.879.879,0,0,0,1.059,0l1.172-.884a6.771,6.771,0,0,1,3.132-1.3l1.454-.2a.879.879,0,0,0,.749-.749l.2-1.454a6.771,6.771,0,0,1,1.3-3.132l.389-.516a15.929,15.929,0,0,1,.8,25.821,17.423,17.423,0,0,0-8.847-2.521V82.936a15.293,15.293,0,0,0,2.129.151,10.457,10.457,0,0,0,6.149-1.77.879.879,0,0,0-1.032-1.423,9.362,9.362,0,0,1-6.049,1.4l4.757-3.978a.879.879,0,0,0-1.128-1.348L123.684,79.9a9.776,9.776,0,0,1,2.828-6.082c2.464-2.2,6.268-1.944,7.822-1.728a13.424,13.424,0,0,1-1.2,4.909.879.879,0,1,0,1.583.764,15.315,15.315,0,0,0,1.387-6.438.879.879,0,0,0-.68-.828c-.254-.059-6.257-1.4-10.085,2.009a9.9,9.9,0,0,0-2.656,4.062,9.9,9.9,0,0,0-2.656-4.062C116.2,69.1,110.2,70.438,109.946,70.5a.879.879,0,0,0-.68.828c-.008.248-.149,6.115,3.648,9.5a10.056,10.056,0,0,0,6.762,2.267,15.3,15.3,0,0,0,2.133-.152v2.449A17.412,17.412,0,0,0,112.954,87.911Zm16.867-26.369a8.533,8.533,0,0,0-1.635,3.947l-.112.8-.8.112a8.534,8.534,0,0,0-3.947,1.635l-.643.485-.643-.485A8.534,8.534,0,0,0,118.1,66.4l-.8-.112-.112-.8a8.534,8.534,0,0,0-1.635-3.947l-.485-.643.485-.643a8.533,8.533,0,0,0,1.635-3.947l.112-.8.8-.112a8.534,8.534,0,0,0,3.947-1.635l.643-.485.643.485a8.534,8.534,0,0,0,3.947,1.635l.8.112.112.8a8.534,8.534,0,0,0,1.635,3.947l.485.643Zm-7.133,29.685a15.913,15.913,0,0,1-8.145-2.238,18.734,18.734,0,0,1,16.285,0A15.839,15.839,0,0,1,122.687,91.228Zm-8.6-11.719c-2.476-2.2-2.952-5.881-3.041-7.418,1.556-.217,5.358-.465,7.82,1.728A9.776,9.776,0,0,1,121.69,79.9l-4.708-3.938a.879.879,0,1,0-1.128,1.348l4.756,3.978C118.8,81.414,116.038,81.249,114.083,79.508Z" transform="translate(-92.687 -45.289)"/>
          <path id="Path_980275" data-name="Path 980275" d="M57.95,23.262H56.026a.3.3,0,0,1-.285-.225,26.525,26.525,0,0,0-2.618-6.311.3.3,0,0,1,.042-.361L54.529,15a2.053,2.053,0,0,0,0-2.9l-1.844-1.844A.879.879,0,1,0,51.442,11.5l1.844,1.844a.293.293,0,0,1,0,.414l-1.363,1.363A2.06,2.06,0,0,0,51.6,17.6,24.763,24.763,0,0,1,54.045,23.5a2.06,2.06,0,0,0,1.982,1.525H57.95a.293.293,0,0,1,.293.293v9.375a.293.293,0,0,1-.293.293H56.026a2.06,2.06,0,0,0-1.982,1.525A24.766,24.766,0,0,1,51.6,42.4a2.06,2.06,0,0,0,.323,2.481l1.363,1.363a.293.293,0,0,1,0,.414l-6.629,6.629a.293.293,0,0,1-.414,0l-1.363-1.363A2.06,2.06,0,0,0,42.4,51.6a24.764,24.764,0,0,1-5.893,2.444,2.06,2.06,0,0,0-1.525,1.982V57.95a.293.293,0,0,1-.293.293H25.313a.293.293,0,0,1-.293-.293V56.026A2.06,2.06,0,0,0,23.5,54.045,24.766,24.766,0,0,1,17.6,51.6a2.061,2.061,0,0,0-2.481.323l-1.363,1.363a.293.293,0,0,1-.414,0L6.715,46.656a.293.293,0,0,1,0-.414l1.363-1.363A2.06,2.06,0,0,0,8.4,42.4a24.764,24.764,0,0,1-2.444-5.893,2.06,2.06,0,0,0-1.982-1.525H2.051a.293.293,0,0,1-.293-.293V25.313a.293.293,0,0,1,.293-.293H3.975A2.06,2.06,0,0,0,5.956,23.5,24.766,24.766,0,0,1,8.4,17.6a2.06,2.06,0,0,0-.323-2.481L6.715,13.759a.293.293,0,0,1,0-.414l6.629-6.629a.293.293,0,0,1,.414,0l1.363,1.363A2.06,2.06,0,0,0,17.6,8.4,24.764,24.764,0,0,1,23.5,5.956,2.06,2.06,0,0,0,25.02,3.974V2.051a.293.293,0,0,1,.293-.293h9.375a.293.293,0,0,1,.293.293V3.975a2.06,2.06,0,0,0,1.525,1.982A24.766,24.766,0,0,1,42.4,8.4a2.06,2.06,0,0,0,2.481-.323l1.363-1.363a.293.293,0,0,1,.414,0l1.868,1.868a.879.879,0,0,0,1.243-1.243L47.9,5.473a2.053,2.053,0,0,0-2.9,0L43.637,6.835a.3.3,0,0,1-.361.042,26.515,26.515,0,0,0-6.311-2.618.3.3,0,0,1-.225-.285V2.051A2.053,2.053,0,0,0,34.688,0H25.313a2.053,2.053,0,0,0-2.051,2.051V3.975a.3.3,0,0,1-.225.285,26.525,26.525,0,0,0-6.311,2.618.3.3,0,0,1-.361-.042L15,5.472a2.053,2.053,0,0,0-2.9,0L5.472,12.1a2.053,2.053,0,0,0,0,2.9l1.363,1.363a.3.3,0,0,1,.042.361,26.515,26.515,0,0,0-2.618,6.311.3.3,0,0,1-.285.225H2.051A2.053,2.053,0,0,0,0,25.313v9.375a2.053,2.053,0,0,0,2.051,2.051H3.975a.3.3,0,0,1,.285.225,26.525,26.525,0,0,0,2.618,6.311.3.3,0,0,1-.042.361L5.472,45a2.053,2.053,0,0,0,0,2.9L12.1,54.529a2.053,2.053,0,0,0,2.9,0l1.363-1.363a.3.3,0,0,1,.361-.042,26.515,26.515,0,0,0,6.311,2.618.3.3,0,0,1,.225.285V57.95A2.053,2.053,0,0,0,25.313,60h9.375a2.053,2.053,0,0,0,2.051-2.051V56.026a.3.3,0,0,1,.225-.285,26.525,26.525,0,0,0,6.311-2.618.3.3,0,0,1,.361.042L45,54.529a2.053,2.053,0,0,0,2.9,0L54.529,47.9a2.053,2.053,0,0,0,0-2.9l-1.363-1.363a.3.3,0,0,1-.042-.361,26.515,26.515,0,0,0,2.618-6.311.3.3,0,0,1,.285-.225H57.95A2.053,2.053,0,0,0,60,34.688V25.313A2.053,2.053,0,0,0,57.95,23.262Z" transform="translate(0 0)"/>
          <path id="Path_980276" data-name="Path 980276" d="M220.689,93.2a4.7,4.7,0,0,0-1.191.153.879.879,0,0,0,.446,1.7,2.926,2.926,0,1,1-2.106,2.16.879.879,0,1,0-1.711-.4,4.688,4.688,0,1,0,4.563-3.611Z" transform="translate(-190.689 -82.282)"/>
        </g>
      </g>
    </g>
  </g>
</svg>
