<svg xmlns="http://www.w3.org/2000/svg" xmlns:xlink="http://www.w3.org/1999/xlink" width="108" height="108" viewBox="0 0 108 108">
  <defs>
    <filter id="Path_904820" x="0" y="0" width="108" height="108" filterUnits="userSpaceOnUse">
      <feOffset dy="3" input="SourceAlpha"/>
      <feGaussianBlur stdDeviation="3" result="blur"/>
      <feFlood flood-opacity="0.161"/>
      <feComposite operator="in" in2="blur"/>
      <feComposite in="SourceGraphic"/>
    </filter>
  </defs>
  <g id="Group_1143903" data-name="Group 1143903" transform="translate(-201 -299)">
    <g id="Group_1143871" data-name="Group 1143871">
      <g transform="matrix(1, 0, 0, 1, 201, 299)" filter="url(#Path_904820)">
        <g id="Path_904820-2" data-name="Path 904820" transform="translate(9 6)" fill="#ecf4fa">
          <path d="M 45 88.5 C 39.12687683105469 88.5 33.43022537231445 87.35007476806641 28.06830024719238 85.08217620849609 C 22.88852500915527 82.89131164550781 18.23629951477051 79.75458526611328 14.2408504486084 75.75914764404297 C 10.24541282653809 71.76370239257812 7.108687400817871 67.11147308349609 4.917825222015381 61.93170166015625 C 2.649924993515015 56.56977462768555 1.5 50.87312316894531 1.5 45 C 1.5 39.12687683105469 2.649924993515015 33.43022537231445 4.917825222015381 28.06830024719238 C 7.108687400817871 22.88852500915527 10.24541282653809 18.23629951477051 14.2408504486084 14.2408504486084 C 18.23629951477051 10.24541282653809 22.88852500915527 7.108687400817871 28.06830024719238 4.917825222015381 C 33.43022537231445 2.649924993515015 39.12687683105469 1.5 45 1.5 C 50.87312316894531 1.5 56.56977462768555 2.649924993515015 61.93170166015625 4.917825222015381 C 67.11147308349609 7.108687400817871 71.76370239257812 10.24541282653809 75.75914764404297 14.2408504486084 C 79.75458526611328 18.23629951477051 82.89131164550781 22.88852500915527 85.08217620849609 28.06830024719238 C 87.35007476806641 33.43022537231445 88.5 39.12687683105469 88.5 45 C 88.5 50.87312316894531 87.35007476806641 56.56977462768555 85.08217620849609 61.93170166015625 C 82.89131164550781 67.11147308349609 79.75458526611328 71.76370239257812 75.75914764404297 75.75914764404297 C 71.76370239257812 79.75458526611328 67.11147308349609 82.89131164550781 61.93170166015625 85.08217620849609 C 56.56977462768555 87.35007476806641 50.87312316894531 88.5 45 88.5 Z" stroke="none"/>
          <path d="M 45 3 C 39.32871246337891 3 33.82865524291992 4.110054016113281 28.65262985229492 6.299339294433594 C 23.65165710449219 8.414573669433594 19.15968322753906 11.44334411621094 15.301513671875 15.301513671875 C 11.44334411621094 19.15968322753906 8.414573669433594 23.65165710449219 6.299339294433594 28.65262985229492 C 4.110054016113281 33.82865524291992 3 39.32871246337891 3 45 C 3 50.67128753662109 4.110054016113281 56.17134475708008 6.299339294433594 61.34737396240234 C 8.414573669433594 66.34834289550781 11.44334411621094 70.84031677246094 15.301513671875 74.698486328125 C 19.15968322753906 78.55665588378906 23.65165710449219 81.58542633056641 28.65262985229492 83.70066070556641 C 33.82865524291992 85.88994598388672 39.32871246337891 87 45 87 C 50.67128753662109 87 56.17134475708008 85.88994598388672 61.34737396240234 83.70066070556641 C 66.34834289550781 81.58542633056641 70.84031677246094 78.55665588378906 74.698486328125 74.698486328125 C 78.55665588378906 70.84031677246094 81.58542633056641 66.34834289550781 83.70066070556641 61.34737396240234 C 85.88994598388672 56.17134475708008 87 50.67128753662109 87 45 C 87 39.32871246337891 85.88994598388672 33.82865524291992 83.70066070556641 28.65262985229492 C 81.58542633056641 23.65165710449219 78.55665588378906 19.15968322753906 74.698486328125 15.301513671875 C 70.84031677246094 11.44334411621094 66.34834289550781 8.414573669433594 61.34737396240234 6.299339294433594 C 56.17134475708008 4.110054016113281 50.67128753662109 3 45 3 M 45 0 C 69.85281372070312 0 90 20.14718627929688 90 45 C 90 69.85281372070312 69.85281372070312 90 45 90 C 20.14718627929688 90 0 69.85281372070312 0 45 C 0 20.14718627929688 20.14718627929688 0 45 0 Z" stroke="none" fill="#2a5673"/>
        </g>
      </g>
      <g id="Group_1143870" data-name="Group 1143870" transform="translate(225.172 295.505)">
        <g id="Group_1143868" data-name="Group 1143868" transform="translate(0.845 30.596)">
          <g id="Group_1143867" data-name="Group 1143867" transform="translate(0 0)">
            <path id="Path_980205" data-name="Path 980205" d="M163.045,153.632v35.887H148.276V153.632a.676.676,0,0,1,.676-.676H162.37A.676.676,0,0,1,163.045,153.632Z" transform="translate(-132.424 -142.488)" fill="#bed9fd"/>
            <path id="Path_980206" data-name="Path 980206" d="M253.023,152.956h-2.59a.676.676,0,0,1,.676.676v35.887h2.59V153.632A.676.676,0,0,0,253.023,152.956Z" transform="translate(-223.077 -142.488)" fill="#9ec8fc"/>
            <g id="Group_1143864" data-name="Group 1143864" transform="translate(0 6.287)">
              <path id="Path_980207" data-name="Path 980207" d="M76.392,221.5l1.34,25.256H72.024l1.34-25.256Z" transform="translate(-64.758 -209.603)" fill="#ddebfd"/>
              <path id="Path_980208" data-name="Path 980208" d="M93.954,221.5h-2.14l1.34,25.256h2.14Z" transform="translate(-82.32 -209.603)" fill="#bed9fd"/>
              <path id="Path_980209" data-name="Path 980209" d="M63.247,448.926v-2.694a.447.447,0,0,0-.447-.447H53.775a.447.447,0,0,0-.447.447v2.694a.447.447,0,0,0,.447.447H62.8A.447.447,0,0,0,63.247,448.926Z" transform="translate(-48.167 -408.629)" fill="#6cbff8"/>
              <path id="Path_980210" data-name="Path 980210" d="M116.146,445.786h-2.7a.447.447,0,0,1,.447.447v2.694a.447.447,0,0,1-.447.447h2.7a.447.447,0,0,0,.447-.447v-2.694A.447.447,0,0,0,116.146,445.786Z" transform="translate(-101.513 -408.63)" fill="#94d8e6"/>
              <g id="Group_1143863" data-name="Group 1143863">
                <path id="Path_980211" data-name="Path 980211" d="M77.955,116.654l1.533,6.518a.857.857,0,0,1-.128.682l-1.781,2.591H76.251l-1.781-2.591a.857.857,0,0,1-.128-.682l1.533-6.518a1.068,1.068,0,0,1,2.079,0Z" transform="translate(-66.795 -115.831)" fill="#ffc269"/>
                <path id="Path_980212" data-name="Path 980212" d="M109.686,221.459l-6.411-1.931a.856.856,0,0,1-.526-.452l-1.353-2.837.664-1.151,3.134-.247a.857.857,0,0,1,.654.23l4.878,4.587a1.068,1.068,0,0,1-1.039,1.8Z" transform="translate(-90.822 -203.69)" fill="#ffc269"/>
                <path id="Path_980213" data-name="Path 980213" d="M7.837,219.66l4.878-4.587a.856.856,0,0,1,.654-.23l3.134.247.664,1.151-1.353,2.837a.857.857,0,0,1-.526.452L8.876,221.46a1.068,1.068,0,0,1-1.039-1.8Z" transform="translate(-7.5 -203.691)" fill="#ffc269"/>
              </g>
              <circle id="Ellipse_11551" data-name="Ellipse 11551" cx="2.176" cy="2.176" r="2.176" transform="translate(7.701 9.99) rotate(-6.72)" fill="#407194"/>
            </g>
            <path id="Path_980214" data-name="Path 980214" d="M215.151,200.891v23.671h17.573V193.074a.628.628,0,0,0-.892-.569l-16.1,7.475A1,1,0,0,0,215.151,200.891Z" transform="translate(-191.768 -177.532)" fill="#6cbff8"/>
            <path id="Path_980215" data-name="Path 980215" d="M346.528,192.5l-2.127.987a.626.626,0,0,1,.428.6v30.474h2.59V193.074a.628.628,0,0,0-.892-.569Z" transform="translate(-306.463 -177.531)" fill="#5fa7ee"/>
            <g id="Group_1143865" data-name="Group 1143865" transform="translate(27.102 25.072)">
              <path id="Path_980216" data-name="Path 980216" d="M248.178,283.207v2.418a.563.563,0,0,0,.563.563h2.418a.563.563,0,0,0,.563-.563v-2.418a.563.563,0,0,0-.563-.563h-2.418A.563.563,0,0,0,248.178,283.207Z" transform="translate(-248.178 -282.644)" fill="#ddebfd"/>
              <path id="Path_980217" data-name="Path 980217" d="M306.707,283.207v2.418a.563.563,0,0,0,.563.563h2.418a.563.563,0,0,0,.563-.563v-2.418a.563.563,0,0,0-.563-.563H307.27A.563.563,0,0,0,306.707,283.207Z" transform="translate(-300.116 -282.644)" fill="#ddebfd"/>
              <path id="Path_980218" data-name="Path 980218" d="M248.178,344.714v2.418a.563.563,0,0,0,.563.563h2.418a.563.563,0,0,0,.563-.563v-2.418a.563.563,0,0,0-.563-.563h-2.418A.563.563,0,0,0,248.178,344.714Z" transform="translate(-248.178 -337.225)" fill="#ddebfd"/>
              <path id="Path_980219" data-name="Path 980219" d="M306.707,344.714v2.418a.563.563,0,0,0,.563.563h2.418a.563.563,0,0,0,.563-.563v-2.418a.563.563,0,0,0-.563-.563H307.27A.563.563,0,0,0,306.707,344.714Z" transform="translate(-300.116 -337.225)" fill="#ddebfd"/>
              <path id="Path_980220" data-name="Path 980220" d="M248.178,406.222v2.418a.563.563,0,0,0,.563.563h2.418a.563.563,0,0,0,.563-.563v-2.418a.563.563,0,0,0-.563-.563h-2.418A.563.563,0,0,0,248.178,406.222Z" transform="translate(-248.178 -391.807)" fill="#ddebfd"/>
              <path id="Path_980221" data-name="Path 980221" d="M306.707,406.222v2.418a.563.563,0,0,0,.563.563h2.418a.563.563,0,0,0,.563-.563v-2.418a.563.563,0,0,0-.563-.563H307.27A.563.563,0,0,0,306.707,406.222Z" transform="translate(-300.116 -391.807)" fill="#ddebfd"/>
            </g>
            <circle id="Ellipse_11552" data-name="Ellipse 11552" cx="4.113" cy="4.113" r="4.113" transform="translate(41.224 5.815) rotate(-45)" fill="#ffc269"/>
            <path id="Path_980222" data-name="Path 980222" d="M120.8,418.4v-.936a3.518,3.518,0,0,0-3.518-3.518h-2.534a.6.6,0,0,1-.575-.429,3.738,3.738,0,0,0-7.193.173.7.7,0,0,1-.438.48,3.519,3.519,0,0,0-2.28,3.294v.936Z" transform="translate(-93.368 -371.373)" fill="#9cd169"/>
            <g id="Group_1143866" data-name="Group 1143866" transform="translate(16.053 39.513)">
              <path id="Path_980223" data-name="Path 980223" d="M152.449,413.521a.6.6,0,0,0,.575.429h2.365a.6.6,0,0,1-.575-.429,3.738,3.738,0,0,0-4.753-2.443A3.746,3.746,0,0,1,152.449,413.521Z" transform="translate(-150.061 -410.886)" fill="#68b181"/>
              <path id="Path_980224" data-name="Path 980224" d="M201.239,438.091h-2.365a3.518,3.518,0,0,1,3.518,3.518v.936h2.365v-.936A3.518,3.518,0,0,0,201.239,438.091Z" transform="translate(-193.377 -435.027)" fill="#68b181"/>
            </g>
            <path id="Path_980225" data-name="Path 980225" d="M417.223,425.813h3.706v5.836h-3.706Z" transform="translate(-371.085 -384.619)" fill="#ddebfd"/>
            <path id="Path_980226" data-name="Path 980226" d="M366.509,338.86l-2.324,9.84a.563.563,0,0,0,.548.692h14.527a.563.563,0,0,0,.548-.692l-2.324-9.84a.563.563,0,0,0-.548-.434h-9.879A.563.563,0,0,0,366.509,338.86Z" transform="translate(-324.006 -307.073)" fill="#407194"/>
          </g>
        </g>
        <g id="Group_1143869" data-name="Group 1143869" transform="translate(0 26.865)">
          <path id="Path_980227" data-name="Path 980227" d="M175.289,196.363h7.189a.845.845,0,0,0,0-1.689h-7.189a.845.845,0,1,0,0,1.689Z" transform="translate(-154.8 -175.777)"/>
          <path id="Path_980228" data-name="Path 980228" d="M56.811,149.077H51.533v-3.021H56.1a1.407,1.407,0,0,0,1.37-1.731l-2.324-9.84a1.4,1.4,0,0,0-1.37-1.084H43.9a1.4,1.4,0,0,0-1.25.76v-4.227a.845.845,0,0,0-1.689,0v11.195l-.755,3.2a1.408,1.408,0,0,0,.755,1.59v3.162H29.124v-.091a4.343,4.343,0,0,0-1.073-2.861,1.4,1.4,0,0,0,.461.079h2.418a1.409,1.409,0,0,0,1.408-1.408v-2.418a1.409,1.409,0,0,0-1.408-1.408H28.511a1.409,1.409,0,0,0-1.408,1.408V144.8a1.4,1.4,0,0,0,.138.6,4.334,4.334,0,0,0-2.168-.764V126.252a.16.16,0,0,1,.092-.145l15.792-7.331v7.217a.845.845,0,0,0,1.689,0v-7.557a1.472,1.472,0,0,0-2.092-1.336l-8.243,3.827v-6.89a1.522,1.522,0,0,0-1.52-1.52H17.375a1.522,1.522,0,0,0-1.52,1.52v5.547a1.714,1.714,0,0,0-.7-.094l-1.546.121a3.019,3.019,0,0,0-.424-.583l.926-1.347a1.707,1.707,0,0,0,.254-1.353l-1.534-6.518a1.912,1.912,0,0,0-3.723,0l-1.534,6.518a1.7,1.7,0,0,0,.254,1.352l.926,1.348a3.041,3.041,0,0,0-.423.583l-1.551-.122a1.71,1.71,0,0,0-1.3.458L.606,124.533a1.913,1.913,0,0,0,1.306,3.307,1.935,1.935,0,0,0,.555-.082l5.88-1.771-1.035,19.5H6.454a1.292,1.292,0,0,0-1.29,1.29v2.3H.847a.845.845,0,0,0,0,1.689H56.811a.845.845,0,0,0,0-1.689Zm-28.018-6.417h1.855v1.855H28.793Zm21.058-7.571.155,1.966H47.667l.155-1.966Zm.288,3.655.155,1.966H47.379l.155-1.966Zm4.742,1.966H51.987l-.155-1.966h2.584Zm-4.3,3.656H47.091l.155-1.967h3.18Zm-4.9-3.656H42.792l.464-1.966H45.84Zm-3.756,3.656.465-1.967h3.159l-.155,1.967Zm5.9,1.689h2.017v3.021H47.828Zm4.448-1.689L52.12,142.4h3.159l.465,1.967Zm1.742-7.311H51.7l-.155-1.966h2.008Zm-9.9-1.966h2.008l-.155,1.966H43.655Zm-1.473,10.966h3.492v3.021H42.647Zm-15.212,2.93v.091H12.588v-.091a2.687,2.687,0,0,1,1.733-2.5,1.549,1.549,0,0,0,.959-1.061,2.894,2.894,0,0,1,5.567-.134,1.441,1.441,0,0,0,1.382,1.024h2.534a2.677,2.677,0,0,1,2.673,2.674ZM20.022,127.84a1.914,1.914,0,0,0,1.775-2.618h1.9a1.849,1.849,0,0,0-.316,1.03v2.754h-2.9a.845.845,0,0,0,0,1.689h2.9v3.786h-2.9a.845.845,0,1,0,0,1.689h2.9v3.785h-2.9a.845.845,0,1,0,0,1.689h2.9v2.98H22.4a4.558,4.558,0,0,0-4.323-3.063,4.622,4.622,0,0,0-.538.032V127.179A11.156,11.156,0,0,0,20.022,127.84Zm10.6-13.634v7.506L26.7,123.533H20.488a.843.843,0,0,0-.2.024l-2.746-2.582v-6.769Zm-15.342,6.968a.016.016,0,0,1,.013,0l4.879,4.587a.222.222,0,0,1,.04.274.227.227,0,0,1-.258.1l-6.411-1.931a.017.017,0,0,1-.008-.007l-.459-.962a3,3,0,0,0,.9-1.965Zm-5.637.061a1.332,1.332,0,1,1,1.479,1.167A1.334,1.334,0,0,1,9.644,121.235ZM10.749,110.2a.223.223,0,0,1,.435,0l1.531,6.527-.985,1.434a3,3,0,0,0-1.527,0l-.988-1.443ZM1.982,126.14a.224.224,0,0,1-.26-.1.222.222,0,0,1,.041-.274l4.875-4.585a.019.019,0,0,1,.011-.006l1.3.1a3,3,0,0,0,.9,1.964l-.465.97Zm8.134-1.616.233-.488a2.965,2.965,0,0,0,1.236,0l.234.49.39,7.341a.844.844,0,0,0,.843.8H13.1a.845.845,0,0,0,.8-.888l-.307-5.791,2.268.683v15.468a4.586,4.586,0,0,0-1.351,1.14l-.4-7.561a.845.845,0,1,0-1.687.089l.5,9.5q-.137.088-.266.185H9ZM6.852,147.18h4.442a4.337,4.337,0,0,0-.4,1.806v.091H6.852Z" transform="translate(0 -99.162)"/>
          <path id="Path_980229" data-name="Path 980229" d="M245.921,276.551a1.409,1.409,0,0,0-1.408-1.408H242.1a1.409,1.409,0,0,0-1.408,1.408v2.418a1.409,1.409,0,0,0,1.408,1.408h2.418a1.409,1.409,0,0,0,1.408-1.408Zm-1.689,2.136h-1.855v-1.855h1.855Z" transform="translate(-213.585 -247.185)"/>
          <path id="Path_980230" data-name="Path 980230" d="M304.447,276.551a1.409,1.409,0,0,0-1.408-1.408h-2.418a1.409,1.409,0,0,0-1.408,1.408v2.418a1.409,1.409,0,0,0,1.408,1.408h2.418a1.409,1.409,0,0,0,1.408-1.408Zm-1.689,2.136H300.9v-1.855h1.855Z" transform="translate(-265.52 -247.185)"/>
          <path id="Path_980231" data-name="Path 980231" d="M244.513,336.649H242.1a1.409,1.409,0,0,0-1.408,1.408v2.418a1.409,1.409,0,0,0,1.408,1.408h2.418a1.409,1.409,0,0,0,1.408-1.408v-2.418A1.409,1.409,0,0,0,244.513,336.649Zm-.282,3.544h-1.855v-1.855h1.855Z" transform="translate(-213.585 -301.765)"/>
          <path id="Path_980232" data-name="Path 980232" d="M304.447,338.056a1.409,1.409,0,0,0-1.408-1.408h-2.418a1.409,1.409,0,0,0-1.408,1.408v2.418a1.409,1.409,0,0,0,1.408,1.408h2.418a1.409,1.409,0,0,0,1.408-1.408Zm-1.689,2.136H300.9v-1.855h1.855Z" transform="translate(-265.52 -301.764)"/>
          <path id="Path_980233" data-name="Path 980233" d="M303.04,398.153h-2.418a1.409,1.409,0,0,0-1.408,1.408v2.418a1.409,1.409,0,0,0,1.408,1.408h2.418a1.409,1.409,0,0,0,1.408-1.408v-2.418A1.409,1.409,0,0,0,303.04,398.153Zm-.281,3.544H300.9v-1.855h1.855Z" transform="translate(-265.521 -356.343)"/>
          <path id="Path_980234" data-name="Path 980234" d="M383.729,76.852a4.957,4.957,0,1,0-2.31-3.01A4.928,4.928,0,0,0,383.729,76.852Zm-.352-5.927a3.268,3.268,0,1,1-.326,2.48A3.266,3.266,0,0,1,383.377,70.925Z" transform="translate(-338.317 -63.016)"/>
          <path id="Path_980235" data-name="Path 980235" d="M351.308,67.065c.636.338.8.537,1.156.537a.845.845,0,0,0,.423-1.576l-.735-.424a.845.845,0,1,0-.845,1.463Z" transform="translate(-311.373 -61.139)"/>
          <path id="Path_980236" data-name="Path 980236" d="M352.153,140.97l.735-.424a.845.845,0,0,0-.845-1.463l-.735.424a.845.845,0,0,0,.845,1.463Z" transform="translate(-311.373 -126.346)"/>
          <path id="Path_980237" data-name="Path 980237" d="M417.786,174.672v.849a.845.845,0,1,0,1.689,0v-.849a.845.845,0,0,0-1.689,0Z" transform="translate(-370.74 -157.278)"/>
          <path id="Path_980238" data-name="Path 980238" d="M478.58,140.545l.735.424a.845.845,0,0,0,.845-1.463l-.735-.424a.845.845,0,0,0-.845,1.463Z" transform="translate(-424.314 -126.345)"/>
          <path id="Path_980239" data-name="Path 980239" d="M479.425,67.489l.735-.424a.845.845,0,0,0-.845-1.463l-.735.424a.845.845,0,0,0,.845,1.463Z" transform="translate(-424.314 -61.14)"/>
          <path id="Path_980240" data-name="Path 980240" d="M418.631,29.4a.845.845,0,0,0,.845-.845V27.71a.845.845,0,1,0-1.689,0v.849A.845.845,0,0,0,418.631,29.4Z" transform="translate(-370.74 -26.865)"/>
        </g>
      </g>
    </g>
  </g>
</svg>
